<svg xmlns="http://www.w3.org/2000/svg" xmlns:xlink="http://www.w3.org/1999/xlink" xmlns:lucid="lucid" width="557.47" height="641.5"><g transform="translate(-600.1943043226355 -120)" lucid:page-tab-id="0_0"><path d="M0 0h1870.87v1322.83H0z" fill="#fff"/><path d="M700 140h437.67v60H700z" fill="none"/><use xlink:href="#a" transform="matrix(1,0,0,1,700,140) translate(3.9382716049383646 37.11111111111111)"/><use xlink:href="#b" transform="matrix(1,0,0,1,700,140) translate(74.95061728395069 37.11111111111111)"/><use xlink:href="#c" transform="matrix(1,0,0,1,700,140) translate(161.6666666666667 37.11111111111111)"/><use xlink:href="#d" transform="matrix(1,0,0,1,700,140) translate(305.76543209876536 37.11111111111111)"/><path d="M760 226c0-3.3 2.7-6 6-6h308c3.3 0 6 2.7 6 6v88c0 3.3-2.7 6-6 6H766c-3.3 0-6-2.7-6-6z" stroke="#ffeca9" stroke-width="3" fill="#ffeca9"/><use xlink:href="#e" transform="matrix(1,0,0,1,772,232) translate(119.92592592592592 30.833333333333332)"/><use xlink:href="#f" transform="matrix(1,0,0,1,772,232) translate(46.271604938271594 59.27777777777778)"/><use xlink:href="#g" transform="matrix(1,0,0,1,772,232) translate(154.72839506172838 59.27777777777778)"/><path d="M760 366c0-3.3 2.7-6 6-6h308c3.3 0 6 2.7 6 6v88c0 3.3-2.7 6-6 6H766c-3.3 0-6-2.7-6-6z" stroke="#c7e8ac" stroke-width="3" fill="#c7e8ac"/><use xlink:href="#h" transform="matrix(1,0,0,1,772,372) translate(120.62962962962963 30.833333333333332)"/><use xlink:href="#i" transform="matrix(1,0,0,1,772,372) translate(107.87654320987654 59.27777777777778)"/><use xlink:href="#j" transform="matrix(1,0,0,1,772,372) translate(144.91358024691357 59.27777777777778)"/><path d="M760 506c0-3.3 2.7-6 6-6h308c3.3 0 6 2.7 6 6v88c0 3.3-2.7 6-6 6H766c-3.3 0-6-2.7-6-6z" stroke="#c7e8ac" stroke-width="3" fill="#c7e8ac"/><use xlink:href="#k" transform="matrix(1,0,0,1,772,512) translate(84.37037037037037 30.833333333333332)"/><use xlink:href="#i" transform="matrix(1,0,0,1,772,512) translate(107.87654320987654 59.27777777777778)"/><use xlink:href="#j" transform="matrix(1,0,0,1,772,512) translate(144.91358024691357 59.27777777777778)"/><path d="M760 646c0-3.3 2.7-6 6-6h308c3.3 0 6 2.7 6 6v88c0 3.3-2.7 6-6 6H766c-3.3 0-6-2.7-6-6z" stroke="#ffeca9" stroke-width="3" fill="#ffeca9"/><use xlink:href="#l" transform="matrix(1,0,0,1,772,652) translate(47.81481481481481 30.833333333333332)"/><use xlink:href="#i" transform="matrix(1,0,0,1,772,652) translate(96.82716049382717 59.27777777777778)"/><use xlink:href="#m" transform="matrix(1,0,0,1,772,652) translate(133.8641975308642 59.27777777777778)"/><path d="M757 290.72l-.8.06-1.1.14-1.08.2-1.05.24-1.03.3-1 .34-1 .4-1 .45-1 .52-.97.58-1 .65-1 .73-1 .82-1 .9-1.02 1.03-1.03 1.15-1.05 1.3-1.06 1.43-1.06 1.63-1.1 1.83-1.07 2.08-1.07 2.35-1.06 2.65-1 2.97-.96 3.32-.85 3.67-.72 4.02-.54 4.3-.34 4.55-.12 4.67.12 4.66.35 4.55.55 4.32.7 4 .87 3.7.94 3.3 1 2.98 1.06 2.64 1.08 2.34 1.08 2.08 1.08 1.84 1.08 1.63 1.06 1.45.78.95" stroke="#ffc374" stroke-width="3" fill="none"/><path d="M758.5 292.17l-1.5.04-.08-3 1.58-.03" fill="#ffc374"/><path d="M754.15 387.17l-14.83-2.2 4.13-8.3z" stroke="#ffc374" stroke-width="3" fill="#ffc374"/><path d="M757 434.72l-.82.06-1.1.14-1.07.18-1.04.24-1.03.3-1 .32-1 .4-1 .44-1 .5-.98.56-1 .63-.98.7-1 .78-1 .87-1.02.98-1.03 1.1-1.04 1.2-1.06 1.37-1.06 1.54-1.08 1.72-1.08 1.94-1.1 2.18-1.05 2.45-1.05 2.76-1 3.08-.92 3.42-.8 3.78-.7 4.1-.5 4.38-.3 4.58-.08 4.67.16 4.67.37 4.52.57 4.28.72 4 .86 3.66.95 3.3 1 3 1.07 2.64 1.07 2.36 1.1 2.1 1.07 1.86 1.07 1.66 1.08 1.48 1.05 1.3.3.36" stroke="#ffc374" stroke-width="3" fill="none"/><path d="M758.5 436.17l-1.5.03-.08-3 1.58-.03" fill="#ffc374"/><path d="M754.13 533.88l-14.86-2.04 4.04-8.34z" stroke="#ffc374" stroke-width="3" fill="#ffc374"/><path d="M757 568.05l-.82.06-1.1.13-1.1.18-1.05.23-1.03.26-1.02.3-1 .37-1 .4-1 .47-1 .5-.97.58-.98.64-1 .7-1 .78-1 .86-1 .96-1.03 1.05-1.05 1.2-1.05 1.3-1.06 1.43-1.07 1.6-1.08 1.8-1.1 2-1.08 2.25-1.06 2.5-1.04 2.77-1 3.08-.93 3.4-.85 3.72-.7 4.03-.58 4.3-.38 4.5-.2 4.66.05 4.68.24 4.62.43 4.46.6 4.22.77 3.94.87 3.62.95 3.3 1 2.98 1.06 2.7 1.07 2.4 1.08 2.17 1.1 1.93 1.07 1.74 1.06 1.56 1.06 1.4 1.05 1.26 1.03 1.13" stroke="#ffc374" stroke-width="3" fill="none"/><path d="M758.5 569.5l-1.5.03-.07-3 1.57-.03" fill="#ffc374"/><path d="M754.07 675.35l-14.92-1.58 3.78-8.47z" stroke="#ffc374" stroke-width="3" fill="#ffc374"/><path d="M757 710.64l-3.07-.07-4.43-.28-4.3-.46-4.2-.62-4.12-.8-4.04-.93-3.98-1.12-3.92-1.28-3.9-1.44-3.84-1.62-3.83-1.8-3.8-2-3.82-2.2-3.82-2.42-3.83-2.67-3.84-2.92-3.87-3.2-3.92-3.5-3.93-3.87-3.98-4.24-4.02-4.66-4.07-5.13-4.1-5.66-4.15-6.24-4.17-6.9-4.2-7.62-4.17-8.42-4.15-9.3-4.07-10.3-3.95-11.33-3.75-12.44-3.48-13.57-3.12-14.7-2.66-15.78-2.1-16.72-1.48-17.46-.75-17.94v-18.1l.75-17.94 1.46-17.47 2.12-16.72 2.67-15.76 3.1-14.7 3.5-13.58 3.74-12.44L641.5 351l4.06-10.3 4.14-9.3 4.18-8.43 4.2-7.62 4.16-6.9 4.14-6.24 4.1-5.64 4.08-5.13 4.02-4.66 3.98-4.24 3.93-3.86 3.9-3.5 3.87-3.2 3.84-2.93 3.84-2.66 3.8-2.42 3.83-2.2 3.8-2 3.84-1.8 3.86-1.62 3.9-1.44 3.9-1.28 4-1.1 4.03-.96 1.1-.2" stroke="#7ab648" stroke-width="3" fill="none"/><path d="M758.5 709.17v3l-1.57-.04.06-3" fill="#7ab648"/><path d="M753.67 249.8l-13.74 6.02-.9-9.23z" stroke="#7ab648" stroke-width="3" fill="#7ab648"/><path d="M1083 391.95l.82-.06 1.1-.15 1.07-.2 1.04-.22 1.03-.3 1-.33 1-.4 1-.43 1-.5.98-.56 1-.62.98-.7 1-.8 1-.86 1.02-.98 1.03-1.1 1.04-1.2 1.06-1.38 1.06-1.53 1.08-1.72 1.08-1.93 1.1-2.18 1.05-2.47 1.05-2.75 1-3.1.92-3.42.8-3.77.7-4.1.5-4.4.3-4.57.08-4.68-.16-4.65-.37-4.52-.57-4.3-.72-4-.86-3.65-.95-3.32-1-2.96-1.07-2.65-1.07-2.38-1.1-2.1-1.07-1.86-1.07-1.65-1.08-1.47-1.05-1.3-.3-.37" stroke="#7ab648" stroke-width="3" fill="none"/><path d="M1083.08 393.46l-1.58.04v-3l1.5-.04" fill="#7ab648"/><path d="M1085.87 292.78l14.86 2.05-4.04 8.34z" stroke="#7ab648" stroke-width="3" fill="#7ab648"/><path d="M1083 530.6l.8-.05 1.1-.14 1.08-.18 1.05-.24 1.03-.3 1-.34 1-.4 1-.46 1-.52.97-.58 1-.65 1-.73 1-.8 1-.93 1.02-1.02 1.03-1.15 1.05-1.28 1.06-1.45 1.06-1.63 1.1-1.84 1.07-2.07 1.07-2.35 1.06-2.64 1-2.97.96-3.32.85-3.68.72-4.02.54-4.32.34-4.55.12-4.67-.12-4.65-.35-4.55-.55-4.3-.7-4.03-.87-3.68-.94-3.32-1-2.97-1.06-2.63-1.08-2.35-1.08-2.07-1.08-1.84-1.08-1.62-1.06-1.44-.78-.96" stroke="#7ab648" stroke-width="3" fill="none"/><path d="M1083.08 532.13l-1.58.04v-3l1.5-.04" fill="#7ab648"/><path d="M1085.85 434.16l14.83 2.2-4.13 8.3z" stroke="#7ab648" stroke-width="3" fill="#7ab648"/><path d="M1083 671.95l.8-.06 1.12-.15 1.07-.2 1.04-.23 1.02-.3 1.02-.33 1-.4 1-.46.98-.5.98-.58 1-.64.98-.7 1-.8 1-.9 1.03-1 1.03-1.12 1.04-1.25 1.06-1.4 1.07-1.6 1.08-1.77 1.1-2 1.07-2.26 1.06-2.55 1.03-2.86.96-3.2.9-3.55.76-3.9.62-4.2.43-4.47.2-4.64v-4.68l-.26-4.6-.45-4.44-.65-4.16-.8-3.84-.9-3.5-.98-3.14-1.04-2.8-1.07-2.5-1.07-2.2-1.08-1.98-1.08-1.74-1.07-1.55-1.05-1.37-.55-.64" stroke="#7ab648" stroke-width="3" fill="none"/><path d="M1083.08 673.46l-1.58.04v-3l1.5-.04" fill="#7ab648"/><path d="M1085.86 574.14l14.85 2.13-4.08 8.32z" stroke="#7ab648" stroke-width="3" fill="#7ab648"/><defs><path fill="#333" d="M127-220V0H93v-220H8v-28h204v28h-85" id="n"/><path fill="#333" d="M106-169C34-169 62-67 57 0H25v-261h32l-1 103c12-21 28-36 61-36 89 0 53 116 60 194h-32v-121c2-32-8-49-39-48" id="o"/><path fill="#333" d="M100-194c63 0 86 42 84 106H49c0 40 14 67 53 68 26 1 43-12 49-29l28 8c-11 28-37 45-77 45C44 4 14-33 15-96c1-61 26-98 85-98zm52 81c6-60-76-77-97-28-3 7-6 17-6 28h103" id="p"/><g id="a"><use transform="matrix(0.0987654320987654,0,0,0.0987654320987654,0,0)" xlink:href="#n"/><use transform="matrix(0.0987654320987654,0,0,0.0987654320987654,21.629629629629623,0)" xlink:href="#o"/><use transform="matrix(0.0987654320987654,0,0,0.0987654320987654,41.3827160493827,0)" xlink:href="#p"/></g><path fill="#7ab648" d="M24-248c120-7 223 5 221 122C244-46 201 0 124 0H24v-248zM76-40c74 7 117-18 117-86 0-67-45-88-117-82v168" id="q"/><path fill="#7ab648" d="M133-34C117-15 103 5 69 4 32 3 11-16 11-54c-1-60 55-63 116-61 1-26-3-47-28-47-18 1-26 9-28 27l-52-2c7-38 36-58 82-57s74 22 75 68l1 82c-1 14 12 18 25 15v27c-30 8-71 5-69-32zm-48 3c29 0 43-24 42-57-32 0-66-3-65 30 0 17 8 27 23 27" id="r"/><path fill="#7ab648" d="M115-3C79 11 28 4 28-45v-112H4v-33h27l15-45h31v45h36v33H77v99c-1 23 16 31 38 25v30" id="s"/><g id="b"><use transform="matrix(0.0987654320987654,0,0,0.0987654320987654,0,0)" xlink:href="#q"/><use transform="matrix(0.0987654320987654,0,0,0.0987654320987654,25.58024691358024,0)" xlink:href="#r"/><use transform="matrix(0.0987654320987654,0,0,0.0987654320987654,45.333333333333314,0)" xlink:href="#s"/><use transform="matrix(0.0987654320987654,0,0,0.0987654320987654,57.0864197530864,0)" xlink:href="#r"/></g><path fill="#7ab648" d="M169-182c-1-43-94-46-97-3 18 66 151 10 154 114 3 95-165 93-204 36-6-8-10-19-12-30l50-8c3 46 112 56 116 5-17-69-150-10-154-114-4-87 153-88 188-35 5 8 8 18 10 28" id="t"/><path fill="#7ab648" d="M190-63c-7 42-38 67-86 67-59 0-84-38-90-98-12-110 154-137 174-36l-49 2c-2-19-15-32-35-32-30 0-35 28-38 64-6 74 65 87 74 30" id="u"/><path fill="#7ab648" d="M25-224v-37h50v37H25zM25 0v-190h50V0H25" id="v"/><path fill="#7ab648" d="M185-48c-13 30-37 53-82 52C43 2 14-33 14-96s30-98 90-98c62 0 83 45 84 108H66c0 31 8 55 39 56 18 0 30-7 34-22zm-45-69c5-46-57-63-70-21-2 6-4 13-4 21h74" id="w"/><path fill="#7ab648" d="M135-194c87-1 58 113 63 194h-50c-7-57 23-157-34-157-59 0-34 97-39 157H25l-1-190h47c2 12-1 28 3 38 12-26 28-41 61-42" id="x"/><g id="c"><use transform="matrix(0.0987654320987654,0,0,0.0987654320987654,0,0)" xlink:href="#t"/><use transform="matrix(0.0987654320987654,0,0,0.0987654320987654,23.703703703703695,0)" xlink:href="#u"/><use transform="matrix(0.0987654320987654,0,0,0.0987654320987654,43.45679012345677,0)" xlink:href="#v"/><use transform="matrix(0.0987654320987654,0,0,0.0987654320987654,53.33333333333331,0)" xlink:href="#w"/><use transform="matrix(0.0987654320987654,0,0,0.0987654320987654,73.08641975308639,0)" xlink:href="#x"/><use transform="matrix(0.0987654320987654,0,0,0.0987654320987654,94.71604938271601,0)" xlink:href="#u"/><use transform="matrix(0.0987654320987654,0,0,0.0987654320987654,114.46913580246907,0)" xlink:href="#w"/></g><path fill="#333" d="M30-248c87 1 191-15 191 75 0 78-77 80-158 76V0H30v-248zm33 125c57 0 124 11 124-50 0-59-68-47-124-48v98" id="y"/><path fill="#333" d="M114-163C36-179 61-72 57 0H25l-1-190h30c1 12-1 29 2 39 6-27 23-49 58-41v29" id="z"/><path fill="#333" d="M100-194c62-1 85 37 85 99 1 63-27 99-86 99S16-35 15-95c0-66 28-99 85-99zM99-20c44 1 53-31 53-75 0-43-8-75-51-75s-53 32-53 75 10 74 51 75" id="A"/><path fill="#333" d="M96-169c-40 0-48 33-48 73s9 75 48 75c24 0 41-14 43-38l32 2c-6 37-31 61-74 61-59 0-76-41-82-99-10-93 101-131 147-64 4 7 5 14 7 22l-32 3c-4-21-16-35-41-35" id="B"/><path fill="#333" d="M135-143c-3-34-86-38-87 0 15 53 115 12 119 90S17 21 10-45l28-5c4 36 97 45 98 0-10-56-113-15-118-90-4-57 82-63 122-42 12 7 21 19 24 35" id="C"/><g id="d"><use transform="matrix(0.0987654320987654,0,0,0.0987654320987654,0,0)" xlink:href="#y"/><use transform="matrix(0.0987654320987654,0,0,0.0987654320987654,23.703703703703695,0)" xlink:href="#z"/><use transform="matrix(0.0987654320987654,0,0,0.0987654320987654,35.45679012345678,0)" xlink:href="#A"/><use transform="matrix(0.0987654320987654,0,0,0.0987654320987654,55.20987654320986,0)" xlink:href="#B"/><use transform="matrix(0.0987654320987654,0,0,0.0987654320987654,72.98765432098763,0)" xlink:href="#p"/><use transform="matrix(0.0987654320987654,0,0,0.0987654320987654,92.7407407407407,0)" xlink:href="#C"/><use transform="matrix(0.0987654320987654,0,0,0.0987654320987654,110.51851851851848,0)" xlink:href="#C"/></g><path fill="#333" d="M199 0l-22-63H83L61 0H9l90-248h61L250 0h-51zm-33-102l-36-108c-10 38-24 72-36 108h72" id="D"/><path fill="#333" d="M169-182c-1-43-94-46-97-3 18 66 151 10 154 114 3 95-165 93-204 36-6-8-10-19-12-30l50-8c3 46 112 56 116 5-17-69-150-10-154-114-4-87 153-88 188-35 5 8 8 18 10 28" id="E"/><path fill="#333" d="M195 0l-88-114-31 24V0H24v-248h52v113l112-113h60L142-143 257 0h-62" id="F"/><g id="e"><use transform="matrix(0.07407407407407407,0,0,0.07407407407407407,0,0)" xlink:href="#D"/><use transform="matrix(0.07407407407407407,0,0,0.07407407407407407,19.185185185185183,0)" xlink:href="#E"/><use transform="matrix(0.07407407407407407,0,0,0.07407407407407407,36.96296296296296,0)" xlink:href="#F"/></g><path fill="#333" d="M24-231v-30h32v30H24zM24 0v-190h32V0H24" id="G"/><path fill="#333" d="M117-194c89-4 53 116 60 194h-32v-121c0-31-8-49-39-48C34-167 62-67 57 0H25l-1-190h30c1 10-1 24 2 32 11-22 29-35 61-36" id="H"/><path fill="#333" d="M59-47c-2 24 18 29 38 22v24C64 9 27 4 27-40v-127H5v-23h24l9-43h21v43h35v23H59v120" id="I"/><path fill="#333" d="M177-190C167-65 218 103 67 71c-23-6-38-20-44-43l32-5c15 47 100 32 89-28v-30C133-14 115 1 83 1 29 1 15-40 15-95c0-56 16-97 71-98 29-1 48 16 59 35 1-10 0-23 2-32h30zM94-22c36 0 50-32 50-73 0-42-14-75-50-75-39 0-46 34-46 75s6 73 46 73" id="J"/><g id="f"><use transform="matrix(0.06172839506172839,0,0,0.06172839506172839,0,0)" xlink:href="#G"/><use transform="matrix(0.06172839506172839,0,0,0.06172839506172839,4.876543209876543,0)" xlink:href="#H"/><use transform="matrix(0.06172839506172839,0,0,0.06172839506172839,17.22222222222222,0)" xlink:href="#I"/><use transform="matrix(0.06172839506172839,0,0,0.06172839506172839,23.39506172839506,0)" xlink:href="#p"/><use transform="matrix(0.06172839506172839,0,0,0.06172839506172839,35.74074074074074,0)" xlink:href="#z"/><use transform="matrix(0.06172839506172839,0,0,0.06172839506172839,43.08641975308642,0)" xlink:href="#p"/><use transform="matrix(0.06172839506172839,0,0,0.06172839506172839,55.432098765432094,0)" xlink:href="#C"/><use transform="matrix(0.06172839506172839,0,0,0.06172839506172839,66.5432098765432,0)" xlink:href="#I"/><use transform="matrix(0.06172839506172839,0,0,0.06172839506172839,72.71604938271604,0)" xlink:href="#G"/><use transform="matrix(0.06172839506172839,0,0,0.06172839506172839,77.59259259259258,0)" xlink:href="#H"/><use transform="matrix(0.06172839506172839,0,0,0.06172839506172839,89.93827160493827,0)" xlink:href="#J"/></g><path fill="#333" d="M145-31C134-9 116 4 85 4 32 4 16-35 15-94c0-59 17-99 70-100 32-1 48 14 60 33 0-11-1-24 2-32h30l-1 268h-32zM93-21c41 0 51-33 51-76s-8-73-50-73c-40 0-46 35-46 75s5 74 45 74" id="K"/><path fill="#333" d="M84 4C-5 8 30-112 23-190h32v120c0 31 7 50 39 49 72-2 45-101 50-169h31l1 190h-30c-1-10 1-25-2-33-11 22-28 36-60 37" id="L"/><g id="g"><use transform="matrix(0.06172839506172839,0,0,0.06172839506172839,0,0)" xlink:href="#K"/><use transform="matrix(0.06172839506172839,0,0,0.06172839506172839,12.345679012345679,0)" xlink:href="#L"/><use transform="matrix(0.06172839506172839,0,0,0.06172839506172839,24.691358024691358,0)" xlink:href="#p"/><use transform="matrix(0.06172839506172839,0,0,0.06172839506172839,37.03703703703704,0)" xlink:href="#C"/><use transform="matrix(0.06172839506172839,0,0,0.06172839506172839,48.14814814814815,0)" xlink:href="#I"/><use transform="matrix(0.06172839506172839,0,0,0.06172839506172839,54.320987654320994,0)" xlink:href="#G"/><use transform="matrix(0.06172839506172839,0,0,0.06172839506172839,59.19753086419754,0)" xlink:href="#A"/><use transform="matrix(0.06172839506172839,0,0,0.06172839506172839,71.54320987654322,0)" xlink:href="#H"/><use transform="matrix(0.06172839506172839,0,0,0.06172839506172839,83.8888888888889,0)" xlink:href="#C"/></g><path fill="#333" d="M67-125c0 54 23 88 75 88 28 0 53-7 68-21v-34h-60v-39h108v91C232-14 192 4 140 4 58 4 20-42 15-125 8-236 126-280 215-234c19 10 29 26 37 47l-47 15c-11-23-29-39-63-39-53 1-75 33-75 86" id="M"/><path fill="#333" d="M24 0v-248h195v40H76v63h132v40H76v65h150V0H24" id="N"/><path fill="#333" d="M136-208V0H84v-208H4v-40h212v40h-80" id="O"/><g id="h"><use transform="matrix(0.07407407407407407,0,0,0.07407407407407407,0,0)" xlink:href="#M"/><use transform="matrix(0.07407407407407407,0,0,0.07407407407407407,20.74074074074074,0)" xlink:href="#N"/><use transform="matrix(0.07407407407407407,0,0,0.07407407407407407,38.51851851851852,0)" xlink:href="#O"/></g><g id="i"><use transform="matrix(0.06172839506172839,0,0,0.06172839506172839,0,0)" xlink:href="#I"/><use transform="matrix(0.06172839506172839,0,0,0.06172839506172839,6.172839506172839,0)" xlink:href="#o"/><use transform="matrix(0.06172839506172839,0,0,0.06172839506172839,18.51851851851852,0)" xlink:href="#p"/></g><path fill="#333" d="M85-194c31 0 48 13 60 33l-1-100h32l1 261h-30c-2-10 0-23-3-31C134-8 116 4 85 4 32 4 16-35 15-94c0-66 23-100 70-100zm9 24c-40 0-46 34-46 75 0 40 6 74 45 74 42 0 51-32 51-76 0-42-9-74-50-73" id="P"/><path fill="#333" d="M141-36C126-15 110 5 73 4 37 3 15-17 15-53c-1-64 63-63 125-63 3-35-9-54-41-54-24 1-41 7-42 31l-33-3c5-37 33-52 76-52 45 0 72 20 72 64v82c-1 20 7 32 28 27v20c-31 9-61-2-59-35zM48-53c0 20 12 33 32 33 41-3 63-29 60-74-43 2-92-5-92 41" id="Q"/><g id="j"><use transform="matrix(0.06172839506172839,0,0,0.06172839506172839,0,0)" xlink:href="#P"/><use transform="matrix(0.06172839506172839,0,0,0.06172839506172839,12.345679012345679,0)" xlink:href="#Q"/><use transform="matrix(0.06172839506172839,0,0,0.06172839506172839,24.691358024691358,0)" xlink:href="#I"/><use transform="matrix(0.06172839506172839,0,0,0.06172839506172839,30.864197530864196,0)" xlink:href="#Q"/></g><path fill="#333" d="M182 0l-62-99L58 0H3l86-130-79-118h55l55 88 55-88h55l-75 118L237 0h-55" id="R"/><path fill="#333" d="M24-248c93 1 206-16 204 79-1 75-69 88-152 82V0H24v-248zm52 121c47 0 100 7 100-41 0-47-54-39-100-39v80" id="S"/><path fill="#333" d="M24 0v-248h52v208h133V0H24" id="T"/><path fill="#333" d="M140-251c80 0 125 45 125 126S219 4 139 4C58 4 15-44 15-125s44-126 125-126zm-1 214c52 0 73-35 73-88 0-50-21-86-72-86-52 0-73 35-73 86s22 88 72 88" id="U"/><path fill="#333" d="M240-174c0 40-23 61-54 70L253 0h-59l-57-94H76V0H24v-248c93 4 217-23 216 74zM76-134c48-2 112 12 112-38 0-48-66-32-112-35v73" id="V"/><g id="k"><use transform="matrix(0.07407407407407407,0,0,0.07407407407407407,0,0)" xlink:href="#N"/><use transform="matrix(0.07407407407407407,0,0,0.07407407407407407,17.77777777777778,0)" xlink:href="#R"/><use transform="matrix(0.07407407407407407,0,0,0.07407407407407407,35.55555555555556,0)" xlink:href="#S"/><use transform="matrix(0.07407407407407407,0,0,0.07407407407407407,53.333333333333336,0)" xlink:href="#T"/><use transform="matrix(0.07407407407407407,0,0,0.07407407407407407,69.55555555555556,0)" xlink:href="#U"/><use transform="matrix(0.07407407407407407,0,0,0.07407407407407407,90.2962962962963,0)" xlink:href="#V"/><use transform="matrix(0.07407407407407407,0,0,0.07407407407407407,109.4814814814815,0)" xlink:href="#N"/></g><path fill="#333" d="M67-125c0 53 21 87 73 88 37 1 54-22 65-47l45 17C233-25 199 4 140 4 58 4 20-42 15-125 8-235 124-281 211-232c18 10 29 29 36 50l-46 12c-8-25-30-41-62-41-52 0-71 34-72 86" id="W"/><path fill="#333" d="M230 0l2-204L168 0h-37L68-204 70 0H24v-248h70l56 185 57-185h69V0h-46" id="X"/><path fill="#333" d="M238-95c0 69-44 99-111 99C63 4 22-25 22-93v-155h51v151c-1 38 19 59 55 60 90 1 49-130 58-211h52v153" id="Y"/><path fill="#333" d="M175 0L67-191c6 58 2 128 3 191H24v-248h59L193-55c-6-58-2-129-3-193h46V0h-61" id="Z"/><path fill="#333" d="M24 0v-248h52V0H24" id="aa"/><g id="l"><use transform="matrix(0.07407407407407407,0,0,0.07407407407407407,0,0)" xlink:href="#W"/><use transform="matrix(0.07407407407407407,0,0,0.07407407407407407,19.185185185185183,0)" xlink:href="#U"/><use transform="matrix(0.07407407407407407,0,0,0.07407407407407407,39.925925925925924,0)" xlink:href="#X"/><use transform="matrix(0.07407407407407407,0,0,0.07407407407407407,62.07407407407407,0)" xlink:href="#X"/><use transform="matrix(0.07407407407407407,0,0,0.07407407407407407,84.22222222222221,0)" xlink:href="#Y"/><use transform="matrix(0.07407407407407407,0,0,0.07407407407407407,103.40740740740739,0)" xlink:href="#Z"/><use transform="matrix(0.07407407407407407,0,0,0.07407407407407407,122.59259259259258,0)" xlink:href="#aa"/><use transform="matrix(0.07407407407407407,0,0,0.07407407407407407,130,0)" xlink:href="#W"/><use transform="matrix(0.07407407407407407,0,0,0.07407407407407407,149.1851851851852,0)" xlink:href="#D"/><use transform="matrix(0.07407407407407407,0,0,0.07407407407407407,166.37037037037038,0)" xlink:href="#O"/><use transform="matrix(0.07407407407407407,0,0,0.07407407407407407,182.5925925925926,0)" xlink:href="#N"/></g><path fill="#333" d="M24 0v-261h32V0H24" id="ab"/><g id="m"><use transform="matrix(0.06172839506172839,0,0,0.06172839506172839,0,0)" xlink:href="#z"/><use transform="matrix(0.06172839506172839,0,0,0.06172839506172839,7.345679012345679,0)" xlink:href="#p"/><use transform="matrix(0.06172839506172839,0,0,0.06172839506172839,19.691358024691358,0)" xlink:href="#C"/><use transform="matrix(0.06172839506172839,0,0,0.06172839506172839,30.80246913580247,0)" xlink:href="#L"/><use transform="matrix(0.06172839506172839,0,0,0.06172839506172839,43.148148148148145,0)" xlink:href="#ab"/><use transform="matrix(0.06172839506172839,0,0,0.06172839506172839,48.02469135802469,0)" xlink:href="#I"/><use transform="matrix(0.06172839506172839,0,0,0.06172839506172839,54.19753086419753,0)" xlink:href="#C"/></g></defs></g></svg>