<svg xmlns="http://www.w3.org/2000/svg" xmlns:xlink="http://www.w3.org/1999/xlink" xmlns:lucid="lucid" width="1051.78" height="800"><g transform="translate(-558.222922686441 -120)" lucid:page-tab-id="0_0"><path d="M0 0h1870.87v1322.83H0z" fill="#fff"/><path d="M700 140h437.67v60H700z" fill="none"/><use xlink:href="#a" transform="matrix(1,0,0,1,700,140) translate(3.9382716049383646 37.11111111111111)"/><use xlink:href="#b" transform="matrix(1,0,0,1,700,140) translate(74.95061728395069 37.11111111111111)"/><use xlink:href="#c" transform="matrix(1,0,0,1,700,140) translate(161.6666666666667 37.11111111111111)"/><use xlink:href="#d" transform="matrix(1,0,0,1,700,140) translate(305.76543209876536 37.11111111111111)"/><path d="M1210 380h310v60h-310z" fill="none"/><use xlink:href="#e" transform="matrix(1,0,0,1,1210,380) translate(29.805555555555586 22)"/><use xlink:href="#f" transform="matrix(1,0,0,1,1210,380) translate(114.0277777777778 22)"/><use xlink:href="#g" transform="matrix(1,0,0,1,1210,380) translate(162.80555555555554 22)"/><use xlink:href="#h" transform="matrix(1,0,0,1,1210,380) translate(208.25 22)"/><use xlink:href="#i" transform="matrix(1,0,0,1,1210,380) translate(19.333333333333343 46)"/><use xlink:href="#j" transform="matrix(1,0,0,1,1210,380) translate(108.83333333333333 46)"/><use xlink:href="#g" transform="matrix(1,0,0,1,1210,380) translate(203.11111111111111 46)"/><use xlink:href="#k" transform="matrix(1,0,0,1,1210,380) translate(248.55555555555554 46)"/><path d="M760 226c0-3.3 2.7-6 6-6h308c3.3 0 6 2.7 6 6v88c0 3.3-2.7 6-6 6H766c-3.3 0-6-2.7-6-6z" stroke="#c7e8ac" stroke-width="3" fill="#c7e8ac"/><use xlink:href="#l" transform="matrix(1,0,0,1,772,232) translate(119.92592592592592 30.833333333333332)"/><use xlink:href="#m" transform="matrix(1,0,0,1,772,232) translate(46.271604938271594 59.27777777777778)"/><use xlink:href="#n" transform="matrix(1,0,0,1,772,232) translate(154.72839506172838 59.27777777777778)"/><path d="M760 366c0-3.3 2.7-6 6-6h308c3.3 0 6 2.7 6 6v88c0 3.3-2.7 6-6 6H766c-3.3 0-6-2.7-6-6z" stroke="#c7e8ac" stroke-width="3" fill="#c7e8ac"/><use xlink:href="#o" transform="matrix(1,0,0,1,772,372) translate(120.62962962962963 30.833333333333332)"/><use xlink:href="#p" transform="matrix(1,0,0,1,772,372) translate(107.87654320987654 59.27777777777778)"/><use xlink:href="#q" transform="matrix(1,0,0,1,772,372) translate(144.91358024691357 59.27777777777778)"/><path d="M760 506c0-3.3 2.7-6 6-6h308c3.3 0 6 2.7 6 6v88c0 3.3-2.7 6-6 6H766c-3.3 0-6-2.7-6-6z" stroke="#c7e8ac" stroke-width="3" fill="#c7e8ac"/><use xlink:href="#r" transform="matrix(1,0,0,1,772,512) translate(84.37037037037037 30.833333333333332)"/><use xlink:href="#p" transform="matrix(1,0,0,1,772,512) translate(107.87654320987654 59.27777777777778)"/><use xlink:href="#q" transform="matrix(1,0,0,1,772,512) translate(144.91358024691357 59.27777777777778)"/><path d="M760 786c0-3.3 2.7-6 6-6h308c3.3 0 6 2.7 6 6v88c0 3.3-2.7 6-6 6H766c-3.3 0-6-2.7-6-6z" stroke="#c7e8ac" stroke-width="3" fill="#c7e8ac"/><use xlink:href="#s" transform="matrix(1,0,0,1,772,792) translate(47.81481481481481 30.833333333333332)"/><use xlink:href="#p" transform="matrix(1,0,0,1,772,792) translate(96.82716049382717 59.27777777777778)"/><use xlink:href="#t" transform="matrix(1,0,0,1,772,792) translate(133.8641975308642 59.27777777777778)"/><path d="M757 290.72l-.8.06-1.1.14-1.08.2-1.05.24-1.03.3-1 .34-1 .4-1 .45-1 .52-.97.58-1 .65-1 .73-1 .82-1 .9-1.02 1.03-1.03 1.15-1.05 1.3-1.06 1.43-1.06 1.63-1.1 1.83-1.07 2.08-1.07 2.35-1.06 2.65-1 2.97-.96 3.32-.85 3.67-.72 4.02-.54 4.3-.34 4.55-.12 4.67.12 4.66.35 4.55.55 4.32.7 4 .87 3.7.94 3.3 1 2.98 1.06 2.64 1.08 2.34 1.08 2.08 1.08 1.84 1.08 1.63 1.06 1.45.78.95" stroke="#7ab648" stroke-width="3" fill="none"/><path d="M758.5 292.17l-1.5.04-.08-3 1.58-.03" fill="#7ab648"/><path d="M754.15 387.17l-14.83-2.2 4.13-8.3z" stroke="#7ab648" stroke-width="3" fill="#7ab648"/><path d="M757 434.72l-.82.06-1.1.14-1.07.18-1.04.24-1.03.3-1 .32-1 .4-1 .44-1 .5-.98.56-1 .63-.98.7-1 .78-1 .87-1.02.98-1.03 1.1-1.04 1.2-1.06 1.37-1.06 1.54-1.08 1.72-1.08 1.94-1.1 2.18-1.05 2.45-1.05 2.76-1 3.08-.92 3.42-.8 3.78-.7 4.1-.5 4.38-.3 4.58-.08 4.67.16 4.67.37 4.52.57 4.28.72 4 .86 3.66.95 3.3 1 3 1.07 2.64 1.07 2.36 1.1 2.1 1.07 1.86 1.07 1.66 1.08 1.48 1.05 1.3.3.36" stroke="#7ab648" stroke-width="3" fill="none"/><path d="M758.5 436.17l-1.5.03-.08-3 1.58-.03" fill="#7ab648"/><path d="M754.13 533.88l-14.86-2.04 4.04-8.34z" stroke="#7ab648" stroke-width="3" fill="#7ab648"/><path d="M757 568.05l-.82.06-1.1.15-1.07.18-1.04.24-1.03.28-1.02.33-1 .38-1 .44-.97.5-1 .55-.98.62-1 .7-1 .76-1 .85-1 .96-1.03 1.06-1.04 1.2-1.05 1.32-1.06 1.5-1.08 1.66-1.1 1.88-1.07 2.1-1.08 2.37-1.05 2.66-1.02 2.96-.95 3.3-.86 3.66-.73 4-.58 4.27-.38 4.5-.17 4.65.06 4.68.28 4.6.5 4.4.64 4.14.8 3.82.9 3.47 1 3.14 1.04 2.83 1.06 2.5 1.08 2.25 1.08 2 1.08 1.76 1.07 1.57 1.05 1.42 1.05 1.26.08.08" stroke="#7ab648" stroke-width="3" fill="none"/><path d="M758.5 569.5l-1.5.04-.08-3 1.58-.04" fill="#7ab648"/><path d="M754.12 668.58l-14.87-1.97 4-8.35z" stroke="#7ab648" stroke-width="3" fill="#7ab648"/><path d="M757 850.64l-4.46-.1-5.77-.36-5.6-.6-5.5-.8-5.36-1.02-5.25-1.24-5.18-1.45-5.12-1.66-5.06-1.87-5.03-2.1-5-2.36-4.97-2.6-4.96-2.87-4.98-3.16-5-3.47-5-3.8-5.04-4.18-5.1-4.6-5.12-5.02-5.2-5.52-5.23-6.08-5.3-6.7-5.35-7.36-5.4-8.14-5.44-8.98-5.46-9.94-5.45-11-5.4-12.13-5.3-13.4-5.14-14.78-4.9-16.2-4.53-17.7-4.07-19.18-3.47-20.56-2.75-21.8-1.9-22.75-.98-23.38v-23.6l.98-23.38 1.9-22.77 2.76-21.8 3.48-20.55 4.07-19.17 4.55-17.68 4.9-16.2 5.13-14.77 5.3-13.4 5.4-12.15 5.45-11 5.46-9.92 5.43-8.98 5.4-8.14 5.35-7.37 5.3-6.7 5.24-6.07 5.2-5.52 5.12-5.02 5.1-4.58 5.03-4.18 5.02-3.8 4.97-3.47 4.98-3.16 4.97-2.87 4.97-2.6 4.98-2.35 5.02-2.1 5.06-1.9 5.12-1.66 5.18-1.45 5.27-1.23 5.36-1.02 2.26-.34" stroke="#7ab648" stroke-width="3" fill="none"/><path d="M758.5 849.17v3l-1.58-.04.07-3" fill="#7ab648"/><path d="M753.66 249.7l-13.88 5.7-.7-9.25z" stroke="#7ab648" stroke-width="3" fill="#7ab648"/><path d="M1083 391.95l.82-.06 1.1-.15 1.07-.2 1.04-.22 1.03-.3 1-.33 1-.4 1-.43 1-.5.98-.56 1-.62.98-.7 1-.8 1-.86 1.02-.98 1.03-1.1 1.04-1.2 1.06-1.38 1.06-1.53 1.08-1.72 1.08-1.93 1.1-2.18 1.05-2.47 1.05-2.75 1-3.1.92-3.42.8-3.77.7-4.1.5-4.4.3-4.57.08-4.68-.16-4.65-.37-4.52-.57-4.3-.72-4-.86-3.65-.95-3.32-1-2.96-1.07-2.65-1.07-2.38-1.1-2.1-1.07-1.86-1.07-1.65-1.08-1.47-1.05-1.3-.3-.37" stroke="#7ab648" stroke-width="3" fill="none"/><path d="M1083.08 393.46l-1.58.04v-3l1.5-.04" fill="#7ab648"/><path d="M1085.87 292.78l14.86 2.05-4.04 8.34z" stroke="#7ab648" stroke-width="3" fill="#7ab648"/><path d="M1083 530.6l.8-.05 1.1-.14 1.08-.18 1.05-.24 1.03-.3 1-.34 1-.4 1-.46 1-.52.97-.58 1-.65 1-.73 1-.8 1-.93 1.02-1.02 1.03-1.15 1.05-1.28 1.06-1.45 1.06-1.63 1.1-1.84 1.07-2.07 1.07-2.35 1.06-2.64 1-2.97.96-3.32.85-3.68.72-4.02.54-4.32.34-4.55.12-4.67-.12-4.65-.35-4.55-.55-4.3-.7-4.03-.87-3.68-.94-3.32-1-2.97-1.06-2.63-1.08-2.35-1.08-2.07-1.08-1.84-1.08-1.62-1.06-1.44-.78-.96" stroke="#7ab648" stroke-width="3" fill="none"/><path d="M1083.08 532.13l-1.58.04v-3l1.5-.04" fill="#7ab648"/><path d="M1085.85 434.16l14.83 2.2-4.13 8.3z" stroke="#7ab648" stroke-width="3" fill="#7ab648"/><path d="M1083 811.95l.8-.06 1.12-.15 1.07-.2 1.04-.23 1.02-.3 1.02-.33 1-.4 1-.46.98-.5.98-.58 1-.64.98-.7 1-.8 1-.9 1.03-1 1.03-1.12 1.04-1.25 1.06-1.4 1.07-1.6 1.08-1.77 1.1-2 1.07-2.26 1.06-2.55 1.03-2.86.96-3.2.9-3.55.76-3.9.62-4.2.43-4.47.2-4.64v-4.68l-.26-4.6-.45-4.44-.65-4.16-.8-3.84-.9-3.5-.98-3.14-1.04-2.8-1.07-2.5-1.07-2.2-1.08-1.98-1.08-1.74-1.07-1.55-1.05-1.37-.55-.64" stroke="#7ab648" stroke-width="3" fill="none"/><path d="M1083.08 813.46l-1.58.04v-3l1.5-.04" fill="#7ab648"/><path d="M1085.86 714.14l14.85 2.13-4.08 8.32z" stroke="#7ab648" stroke-width="3" fill="#7ab648"/><path d="M1040.75 550c0-.4.34-.75.75-.75h167c.4 0 .75.34.75.75 0 .4-.34.75-.75.75h-167c-.4 0-.75-.34-.75-.75zM1040.75 410c0-.4.34-.75.75-.75h167c.4 0 .75.34.75.75 0 .4-.34.75-.75.75h-167c-.4 0-.75-.34-.75-.75z" stroke="#5e5e5e" stroke-width="1.5" fill="none"/><path d="M1210 220h320v120h-320z" fill="none"/><use xlink:href="#u" transform="matrix(1,0,0,1,1210,220) translate(12.444444444444457 40.00000000000001)"/><use xlink:href="#v" transform="matrix(1,0,0,1,1210,220) translate(51.33333333333334 40.00000000000001)"/><use xlink:href="#w" transform="matrix(1,0,0,1,1210,220) translate(151.05555555555554 40.00000000000001)"/><use xlink:href="#x" transform="matrix(1,0,0,1,1210,220) translate(217.6111111111111 40.00000000000001)"/><use xlink:href="#y" transform="matrix(1,0,0,1,1210,220) translate(239.83333333333331 40.00000000000001)"/><use xlink:href="#z" transform="matrix(1,0,0,1,1210,220) translate(15.888888888888914 64)"/><use xlink:href="#A" transform="matrix(1,0,0,1,1210,220) translate(128.83333333333334 64)"/><use xlink:href="#B" transform="matrix(1,0,0,1,1210,220) translate(270.7777777777777 64)"/><use xlink:href="#C" transform="matrix(1,0,0,1,1210,220) translate(84.58333333333334 88)"/><use xlink:href="#D" transform="matrix(1,0,0,1,1210,220) translate(166.6388888888889 88)"/><path d="M1040.75 270c0-.4.34-.75.75-.75h167c.4 0 .75.34.75.75 0 .4-.34.75-.75.75h-167c-.4 0-.75-.34-.75-.75z" stroke="#5e5e5e" stroke-width="1.5" fill="none"/><path d="M1220 520h370v60h-370z" fill="none"/><g><use xlink:href="#E" transform="matrix(1,0,0,1,1220,520) translate(91.72222222222223 15.999999999999998)"/><use xlink:href="#F" transform="matrix(1,0,0,1,1220,520) translate(206.05555555555554 15.999999999999998)"/><use xlink:href="#G" transform="matrix(1,0,0,1,1220,520) translate(239.38888888888889 15.999999999999998)"/><use xlink:href="#H" transform="matrix(1,0,0,1,1220,520) translate(2.5833333333333712 39.99999999999999)"/><use xlink:href="#I" transform="matrix(1,0,0,1,1220,520) translate(87.97222222222224 39.99999999999999)"/><use xlink:href="#J" transform="matrix(1,0,0,1,1220,520) translate(153.47222222222223 39.99999999999999)"/><use xlink:href="#K" transform="matrix(1,0,0,1,1220,520) translate(243.25 39.99999999999999)"/><use xlink:href="#L" transform="matrix(1,0,0,1,1220,520) translate(44.61111111111114 63.99999999999999)"/><use xlink:href="#M" transform="matrix(1,0,0,1,1220,520) translate(85.61111111111114 63.99999999999999)"/><use xlink:href="#N" transform="matrix(1,0,0,1,1220,520) translate(152.11111111111111 63.99999999999999)"/><use xlink:href="#O" transform="matrix(1,0,0,1,1220,520) translate(179.88888888888889 63.99999999999999)"/><use xlink:href="#P" transform="matrix(1,0,0,1,1220,520) translate(213.22222222222223 63.99999999999999)"/><use xlink:href="#Q" transform="matrix(1,0,0,1,1220,520) translate(286.5 63.99999999999999)"/></g><path d="M1210 780h370v120h-370z" fill="none"/><g><use xlink:href="#R" transform="matrix(1,0,0,1,1210,780) translate(9.333333333333371 52)"/><use xlink:href="#O" transform="matrix(1,0,0,1,1210,780) translate(100.00000000000003 52)"/><use xlink:href="#S" transform="matrix(1,0,0,1,1210,780) translate(133.33333333333337 52)"/><use xlink:href="#T" transform="matrix(1,0,0,1,1210,780) translate(179.8888888888889 52)"/><use xlink:href="#U" transform="matrix(1,0,0,1,1210,780) translate(207.66666666666669 52)"/><use xlink:href="#V" transform="matrix(1,0,0,1,1210,780) translate(313.05555555555554 52)"/><use xlink:href="#W" transform="matrix(1,0,0,1,1210,780) translate(51.888888888888914 76)"/><use xlink:href="#X" transform="matrix(1,0,0,1,1210,780) translate(107.2777777777778 76)"/><use xlink:href="#Y" transform="matrix(1,0,0,1,1210,780) translate(123.94444444444446 76)"/><use xlink:href="#Z" transform="matrix(1,0,0,1,1210,780) translate(178.27777777777777 76)"/><use xlink:href="#aa" transform="matrix(1,0,0,1,1210,780) translate(223.7222222222222 76)"/><use xlink:href="#ab" transform="matrix(1,0,0,1,1210,780) translate(257.05555555555554 76)"/></g><path d="M1040.75 830c0-.4.34-.75.75-.75h167c.4 0 .75.34.75.75 0 .4-.34.75-.75.75h-167c-.4 0-.75-.34-.75-.75z" stroke="#5e5e5e" stroke-width="1.5" fill="none"/><path d="M760 646c0-3.3 2.7-6 6-6h308c3.3 0 6 2.7 6 6v88c0 3.3-2.7 6-6 6H766c-3.3 0-6-2.7-6-6z" stroke="#999" stroke-width="3" fill="#999"/><g><use xlink:href="#ac" transform="matrix(1,0,0,1,772,652) translate(99.96296296296296 30.833333333333332)"/><use xlink:href="#p" transform="matrix(1,0,0,1,772,652) translate(107.87654320987654 59.27777777777778)"/><use xlink:href="#q" transform="matrix(1,0,0,1,772,652) translate(144.91358024691357 59.27777777777778)"/></g><path d="M1040.75 690c0-.4.34-.75.75-.75h167c.4 0 .75.34.75.75 0 .4-.34.75-.75.75h-167c-.4 0-.75-.34-.75-.75z" stroke="#5e5e5e" stroke-width="1.5" fill="none"/><path d="M1220 660h370v60h-370z" fill="none"/><g><use xlink:href="#ad" transform="matrix(1,0,0,1,1220,660) translate(9.861111111111114 22)"/><use xlink:href="#ae" transform="matrix(1,0,0,1,1220,660) translate(46.36111111111111 22)"/><use xlink:href="#af" transform="matrix(1,0,0,1,1220,660) translate(149.52777777777777 22)"/><use xlink:href="#ag" transform="matrix(1,0,0,1,1220,660) translate(173.86111111111111 22)"/><use xlink:href="#ah" transform="matrix(1,0,0,1,1220,660) translate(214.86111111111111 22)"/><use xlink:href="#ai" transform="matrix(1,0,0,1,1220,660) translate(273.58333333333337 22)"/><use xlink:href="#aj" transform="matrix(1,0,0,1,1220,660) translate(300.25 22)"/><use xlink:href="#ak" transform="matrix(1,0,0,1,1220,660) translate(331.30555555555554 22)"/><use xlink:href="#al" transform="matrix(1,0,0,1,1220,660) translate(48.5277777777778 46)"/><use xlink:href="#am" transform="matrix(1,0,0,1,1220,660) translate(90.69444444444446 46)"/><use xlink:href="#an" transform="matrix(1,0,0,1,1220,660) translate(145.08333333333334 46)"/><use xlink:href="#ao" transform="matrix(1,0,0,1,1220,660) translate(249.36111111111111 46)"/></g><path d="M757 690.04l-.85.06-1.13.12-1.1.16-1.08.2-1.05.25-1.05.3-1.03.33-1 .37-1.02.43-1 .47-1 .52-1 .58-1 .63-1 .7-1 .76-1.02.84-1.02.92-1.03 1-1.04 1.1-1.06 1.23-1.06 1.36-1.08 1.48-1.08 1.63-1.1 1.8-1.1 2-1.08 2.2-1.08 2.44-1.07 2.7-1.04 2.96-.98 3.25-.9 3.57-.83 3.84-.7 4.14-.55 4.37-.38 4.58-.2 4.7v4.73l.2 4.7.38 4.57.56 4.37.7 4.12.8 3.85.92 3.56.98 3.25 1.03 2.98 1.06 2.7 1.08 2.42 1.1 2.2 1.1 2 1.08 1.8 1.1 1.63 1.06 1.48 1.06 1.36 1.06 1.2 1.04 1.12 1.03 1 .17.17" stroke="#7ab648" stroke-width="3" fill="none"/><path d="M758.5 691.5l-1.5.03-.07-3 1.57-.03" fill="#7ab648"/><path d="M754 808.85l-14.97-1.03 3.47-8.6z" stroke="#7ab648" stroke-width="3" fill="#7ab648"/><path d="M1083 670.6l.8-.05 1.1-.15 1.08-.2 1.04-.24 1.02-.3 1-.36 1-.4 1-.48 1-.53.98-.6 1-.7.98-.75 1-.85 1.02-.95 1.03-1.08 1.04-1.2 1.04-1.37 1.07-1.54 1.1-1.74 1.07-1.97 1.08-2.23 1.06-2.53 1.04-2.86.98-3.2.88-3.58.76-3.94.6-4.25.38-4.5.16-4.66-.1-4.67-.3-4.56-.54-4.34-.7-4.04-.85-3.7-.94-3.33-1.02-2.96-1.05-2.62-1.1-2.32-1.07-2.05-1.08-1.8-1.07-1.6-1.06-1.42-.2-.24" stroke="#7ab648" stroke-width="3" fill="none"/><path d="M1083.08 672.13l-1.58.04v-3l1.5-.04" fill="#7ab648"/><path d="M1085.82 576.88l14.8 2.38-4.2 8.25z" stroke="#7ab648" stroke-width="3" fill="#7ab648"/><defs><path fill="#333" d="M127-220V0H93v-220H8v-28h204v28h-85" id="ap"/><path fill="#333" d="M106-169C34-169 62-67 57 0H25v-261h32l-1 103c12-21 28-36 61-36 89 0 53 116 60 194h-32v-121c2-32-8-49-39-48" id="aq"/><path fill="#333" d="M100-194c63 0 86 42 84 106H49c0 40 14 67 53 68 26 1 43-12 49-29l28 8c-11 28-37 45-77 45C44 4 14-33 15-96c1-61 26-98 85-98zm52 81c6-60-76-77-97-28-3 7-6 17-6 28h103" id="ar"/><g id="a"><use transform="matrix(0.0987654320987654,0,0,0.0987654320987654,0,0)" xlink:href="#ap"/><use transform="matrix(0.0987654320987654,0,0,0.0987654320987654,21.629629629629623,0)" xlink:href="#aq"/><use transform="matrix(0.0987654320987654,0,0,0.0987654320987654,41.3827160493827,0)" xlink:href="#ar"/></g><path fill="#7ab648" d="M24-248c120-7 223 5 221 122C244-46 201 0 124 0H24v-248zM76-40c74 7 117-18 117-86 0-67-45-88-117-82v168" id="as"/><path fill="#7ab648" d="M133-34C117-15 103 5 69 4 32 3 11-16 11-54c-1-60 55-63 116-61 1-26-3-47-28-47-18 1-26 9-28 27l-52-2c7-38 36-58 82-57s74 22 75 68l1 82c-1 14 12 18 25 15v27c-30 8-71 5-69-32zm-48 3c29 0 43-24 42-57-32 0-66-3-65 30 0 17 8 27 23 27" id="at"/><path fill="#7ab648" d="M115-3C79 11 28 4 28-45v-112H4v-33h27l15-45h31v45h36v33H77v99c-1 23 16 31 38 25v30" id="au"/><g id="b"><use transform="matrix(0.0987654320987654,0,0,0.0987654320987654,0,0)" xlink:href="#as"/><use transform="matrix(0.0987654320987654,0,0,0.0987654320987654,25.58024691358024,0)" xlink:href="#at"/><use transform="matrix(0.0987654320987654,0,0,0.0987654320987654,45.333333333333314,0)" xlink:href="#au"/><use transform="matrix(0.0987654320987654,0,0,0.0987654320987654,57.0864197530864,0)" xlink:href="#at"/></g><path fill="#7ab648" d="M169-182c-1-43-94-46-97-3 18 66 151 10 154 114 3 95-165 93-204 36-6-8-10-19-12-30l50-8c3 46 112 56 116 5-17-69-150-10-154-114-4-87 153-88 188-35 5 8 8 18 10 28" id="av"/><path fill="#7ab648" d="M190-63c-7 42-38 67-86 67-59 0-84-38-90-98-12-110 154-137 174-36l-49 2c-2-19-15-32-35-32-30 0-35 28-38 64-6 74 65 87 74 30" id="aw"/><path fill="#7ab648" d="M25-224v-37h50v37H25zM25 0v-190h50V0H25" id="ax"/><path fill="#7ab648" d="M185-48c-13 30-37 53-82 52C43 2 14-33 14-96s30-98 90-98c62 0 83 45 84 108H66c0 31 8 55 39 56 18 0 30-7 34-22zm-45-69c5-46-57-63-70-21-2 6-4 13-4 21h74" id="ay"/><path fill="#7ab648" d="M135-194c87-1 58 113 63 194h-50c-7-57 23-157-34-157-59 0-34 97-39 157H25l-1-190h47c2 12-1 28 3 38 12-26 28-41 61-42" id="az"/><g id="c"><use transform="matrix(0.0987654320987654,0,0,0.0987654320987654,0,0)" xlink:href="#av"/><use transform="matrix(0.0987654320987654,0,0,0.0987654320987654,23.703703703703695,0)" xlink:href="#aw"/><use transform="matrix(0.0987654320987654,0,0,0.0987654320987654,43.45679012345677,0)" xlink:href="#ax"/><use transform="matrix(0.0987654320987654,0,0,0.0987654320987654,53.33333333333331,0)" xlink:href="#ay"/><use transform="matrix(0.0987654320987654,0,0,0.0987654320987654,73.08641975308639,0)" xlink:href="#az"/><use transform="matrix(0.0987654320987654,0,0,0.0987654320987654,94.71604938271601,0)" xlink:href="#aw"/><use transform="matrix(0.0987654320987654,0,0,0.0987654320987654,114.46913580246907,0)" xlink:href="#ay"/></g><path fill="#333" d="M30-248c87 1 191-15 191 75 0 78-77 80-158 76V0H30v-248zm33 125c57 0 124 11 124-50 0-59-68-47-124-48v98" id="aA"/><path fill="#333" d="M114-163C36-179 61-72 57 0H25l-1-190h30c1 12-1 29 2 39 6-27 23-49 58-41v29" id="aB"/><path fill="#333" d="M100-194c62-1 85 37 85 99 1 63-27 99-86 99S16-35 15-95c0-66 28-99 85-99zM99-20c44 1 53-31 53-75 0-43-8-75-51-75s-53 32-53 75 10 74 51 75" id="aC"/><path fill="#333" d="M96-169c-40 0-48 33-48 73s9 75 48 75c24 0 41-14 43-38l32 2c-6 37-31 61-74 61-59 0-76-41-82-99-10-93 101-131 147-64 4 7 5 14 7 22l-32 3c-4-21-16-35-41-35" id="aD"/><path fill="#333" d="M135-143c-3-34-86-38-87 0 15 53 115 12 119 90S17 21 10-45l28-5c4 36 97 45 98 0-10-56-113-15-118-90-4-57 82-63 122-42 12 7 21 19 24 35" id="aE"/><g id="d"><use transform="matrix(0.0987654320987654,0,0,0.0987654320987654,0,0)" xlink:href="#aA"/><use transform="matrix(0.0987654320987654,0,0,0.0987654320987654,23.703703703703695,0)" xlink:href="#aB"/><use transform="matrix(0.0987654320987654,0,0,0.0987654320987654,35.45679012345678,0)" xlink:href="#aC"/><use transform="matrix(0.0987654320987654,0,0,0.0987654320987654,55.20987654320986,0)" xlink:href="#aD"/><use transform="matrix(0.0987654320987654,0,0,0.0987654320987654,72.98765432098763,0)" xlink:href="#ar"/><use transform="matrix(0.0987654320987654,0,0,0.0987654320987654,92.7407407407407,0)" xlink:href="#aE"/><use transform="matrix(0.0987654320987654,0,0,0.0987654320987654,110.51851851851848,0)" xlink:href="#aE"/></g><path fill="#62943a" d="M240-174c0 40-23 61-54 70L253 0h-59l-57-94H76V0H24v-248c93 4 217-23 216 74zM76-134c48-2 112 12 112-38 0-48-66-32-112-35v73" id="aF"/><path fill="#62943a" d="M185-48c-13 30-37 53-82 52C43 2 14-33 14-96s30-98 90-98c62 0 83 45 84 108H66c0 31 8 55 39 56 18 0 30-7 34-22zm-45-69c5-46-57-63-70-21-2 6-4 13-4 21h74" id="aG"/><path fill="#62943a" d="M121-226c-27-7-43 5-38 36h38v33H83V0H34v-157H6v-33h28c-9-59 32-81 87-68v32" id="aH"/><path fill="#62943a" d="M85 4C-2 5 27-109 22-190h50c7 57-23 150 33 157 60-5 35-97 40-157h50l1 190h-47c-2-12 1-28-3-38-12 25-28 42-61 42" id="aI"/><path fill="#62943a" d="M195-6C206 82 75 100 31 46c-4-6-6-13-8-21l49-6c3 16 16 24 34 25 40 0 42-37 40-79-11 22-30 35-61 35-53 0-70-43-70-97 0-56 18-96 73-97 30 0 46 14 59 34l2-30h47zm-90-29c32 0 41-27 41-63 0-35-9-62-40-62-32 0-39 29-40 63 0 36 9 62 39 62" id="aJ"/><g id="e"><use transform="matrix(0.055555555555555546,0,0,0.055555555555555546,0,0)" xlink:href="#aF"/><use transform="matrix(0.055555555555555546,0,0,0.055555555555555546,14.388888888888886,0)" xlink:href="#aG"/><use transform="matrix(0.055555555555555546,0,0,0.055555555555555546,25.499999999999993,0)" xlink:href="#aH"/><use transform="matrix(0.055555555555555546,0,0,0.055555555555555546,32.1111111111111,0)" xlink:href="#aI"/><use transform="matrix(0.055555555555555546,0,0,0.055555555555555546,44.277777777777764,0)" xlink:href="#aJ"/><use transform="matrix(0.055555555555555546,0,0,0.055555555555555546,56.44444444444443,0)" xlink:href="#aG"/><use transform="matrix(0.055555555555555546,0,0,0.055555555555555546,67.55555555555554,0)" xlink:href="#aG"/></g><path fill="#62943a" d="M24-248c120-7 223 5 221 122C244-46 201 0 124 0H24v-248zM76-40c74 7 117-18 117-86 0-67-45-88-117-82v168" id="aK"/><path fill="#62943a" d="M133-34C117-15 103 5 69 4 32 3 11-16 11-54c-1-60 55-63 116-61 1-26-3-47-28-47-18 1-26 9-28 27l-52-2c7-38 36-58 82-57s74 22 75 68l1 82c-1 14 12 18 25 15v27c-30 8-71 5-69-32zm-48 3c29 0 43-24 42-57-32 0-66-3-65 30 0 17 8 27 23 27" id="aL"/><path fill="#62943a" d="M115-3C79 11 28 4 28-45v-112H4v-33h27l15-45h31v45h36v33H77v99c-1 23 16 31 38 25v30" id="aM"/><g id="f"><use transform="matrix(0.055555555555555546,0,0,0.055555555555555546,0,0)" xlink:href="#aK"/><use transform="matrix(0.055555555555555546,0,0,0.055555555555555546,14.388888888888886,0)" xlink:href="#aL"/><use transform="matrix(0.055555555555555546,0,0,0.055555555555555546,25.499999999999993,0)" xlink:href="#aM"/><use transform="matrix(0.055555555555555546,0,0,0.055555555555555546,32.1111111111111,0)" xlink:href="#aL"/></g><path fill="#62943a" d="M101-234c-31-9-42 10-38 44h38v23H63V0H32v-167H5v-23h27c-7-52 17-82 69-68v24" id="aN"/><path fill="#62943a" d="M114-163C36-179 61-72 57 0H25l-1-190h30c1 12-1 29 2 39 6-27 23-49 58-41v29" id="aO"/><path fill="#62943a" d="M100-194c62-1 85 37 85 99 1 63-27 99-86 99S16-35 15-95c0-66 28-99 85-99zM99-20c44 1 53-31 53-75 0-43-8-75-51-75s-53 32-53 75 10 74 51 75" id="aP"/><path fill="#62943a" d="M210-169c-67 3-38 105-44 169h-31v-121c0-29-5-50-35-48C34-165 62-65 56 0H25l-1-190h30c1 10-1 24 2 32 10-44 99-50 107 0 11-21 27-35 58-36 85-2 47 119 55 194h-31v-121c0-29-5-49-35-48" id="aQ"/><g id="g"><use transform="matrix(0.055555555555555546,0,0,0.055555555555555546,0,0)" xlink:href="#aN"/><use transform="matrix(0.055555555555555546,0,0,0.055555555555555546,5.5555555555555545,0)" xlink:href="#aO"/><use transform="matrix(0.055555555555555546,0,0,0.055555555555555546,12.166666666666664,0)" xlink:href="#aP"/><use transform="matrix(0.055555555555555546,0,0,0.055555555555555546,23.27777777777777,0)" xlink:href="#aQ"/></g><path fill="#62943a" d="M238-95c0 69-44 99-111 99C63 4 22-25 22-93v-155h51v151c-1 38 19 59 55 60 90 1 49-130 58-211h52v153" id="aR"/><path fill="#62943a" d="M175 0L67-191c6 58 2 128 3 191H24v-248h59L193-55c-6-58-2-129-3-193h46V0h-61" id="aS"/><path fill="#62943a" d="M186 0v-106H76V0H24v-248h52v99h110v-99h50V0h-50" id="aT"/><path fill="#62943a" d="M67-125c0 53 21 87 73 88 37 1 54-22 65-47l45 17C233-25 199 4 140 4 58 4 20-42 15-125 8-235 124-281 211-232c18 10 29 29 36 50l-46 12c-8-25-30-41-62-41-52 0-71 34-72 86" id="aU"/><g id="h"><use transform="matrix(0.055555555555555546,0,0,0.055555555555555546,0,0)" xlink:href="#aR"/><use transform="matrix(0.055555555555555546,0,0,0.055555555555555546,14.388888888888886,0)" xlink:href="#aS"/><use transform="matrix(0.055555555555555546,0,0,0.055555555555555546,28.77777777777777,0)" xlink:href="#aT"/><use transform="matrix(0.055555555555555546,0,0,0.055555555555555546,43.16666666666666,0)" xlink:href="#aU"/><use transform="matrix(0.055555555555555546,0,0,0.055555555555555546,57.55555555555554,0)" xlink:href="#aF"/></g><path fill="#62943a" d="M136-208V0H84v-208H4v-40h212v40h-80" id="aV"/><path fill="#62943a" d="M135-150c-39-12-60 13-60 57V0H25l-1-190h47c2 13-1 29 3 40 6-28 27-53 61-41v41" id="aW"/><path fill="#62943a" d="M110-194c64 0 96 36 96 99 0 64-35 99-97 99-61 0-95-36-95-99 0-62 34-99 96-99zm-1 164c35 0 45-28 45-65 0-40-10-65-43-65-34 0-45 26-45 65 0 36 10 65 43 65" id="aX"/><path fill="#62943a" d="M25-224v-37h50v37H25zM25 0v-190h50V0H25" id="aY"/><path fill="#62943a" d="M137-138c1-29-70-34-71-4 15 46 118 7 119 86 1 83-164 76-172 9l43-7c4 19 20 25 44 25 33 8 57-30 24-41C81-84 22-81 20-136c-2-80 154-74 161-7" id="aZ"/><path fill="#62943a" d="M220-157c-53 9-28 100-34 157h-49v-107c1-27-5-49-29-50C55-147 81-57 75 0H25l-1-190h47c2 12-1 28 3 38 10-53 101-56 108 0 13-22 24-43 59-42 82 1 51 116 57 194h-49v-107c-1-25-5-48-29-50" id="ba"/><g id="i"><use transform="matrix(0.055555555555555546,0,0,0.055555555555555546,0,0)" xlink:href="#aV"/><use transform="matrix(0.055555555555555546,0,0,0.055555555555555546,10.666666666666664,0)" xlink:href="#aG"/><use transform="matrix(0.055555555555555546,0,0,0.055555555555555546,21.77777777777777,0)" xlink:href="#aW"/><use transform="matrix(0.055555555555555546,0,0,0.055555555555555546,29.55555555555555,0)" xlink:href="#aX"/><use transform="matrix(0.055555555555555546,0,0,0.055555555555555546,41.722222222222214,0)" xlink:href="#aW"/><use transform="matrix(0.055555555555555546,0,0,0.055555555555555546,49.49999999999999,0)" xlink:href="#aY"/><use transform="matrix(0.055555555555555546,0,0,0.055555555555555546,55.05555555555555,0)" xlink:href="#aZ"/><use transform="matrix(0.055555555555555546,0,0,0.055555555555555546,66.16666666666666,0)" xlink:href="#ba"/></g><path fill="#62943a" d="M135-194c52 0 70 43 70 98 0 56-19 99-73 100-30 1-46-15-58-35L72 0H24l1-261h50v104c11-23 29-37 60-37zM114-30c31 0 40-27 40-66 0-37-7-63-39-63s-41 28-41 65c0 36 8 64 40 64" id="bb"/><g id="j"><use transform="matrix(0.055555555555555546,0,0,0.055555555555555546,0,0)" xlink:href="#aK"/><use transform="matrix(0.055555555555555546,0,0,0.055555555555555546,14.388888888888886,0)" xlink:href="#aL"/><use transform="matrix(0.055555555555555546,0,0,0.055555555555555546,25.499999999999993,0)" xlink:href="#aM"/><use transform="matrix(0.055555555555555546,0,0,0.055555555555555546,32.1111111111111,0)" xlink:href="#aL"/><use transform="matrix(0.055555555555555546,0,0,0.055555555555555546,43.22222222222221,0)" xlink:href="#bb"/><use transform="matrix(0.055555555555555546,0,0,0.055555555555555546,55.38888888888887,0)" xlink:href="#aL"/><use transform="matrix(0.055555555555555546,0,0,0.055555555555555546,66.49999999999999,0)" xlink:href="#aZ"/><use transform="matrix(0.055555555555555546,0,0,0.055555555555555546,77.6111111111111,0)" xlink:href="#aG"/></g><path fill="#62943a" d="M67-125c0 54 23 88 75 88 28 0 53-7 68-21v-34h-60v-39h108v91C232-14 192 4 140 4 58 4 20-42 15-125 8-236 126-280 215-234c19 10 29 26 37 47l-47 15c-11-23-29-39-63-39-53 1-75 33-75 86" id="bc"/><g id="k"><use transform="matrix(0.055555555555555546,0,0,0.055555555555555546,0,0)" xlink:href="#bc"/><use transform="matrix(0.055555555555555546,0,0,0.055555555555555546,15.555555555555554,0)" xlink:href="#aV"/><use transform="matrix(0.055555555555555546,0,0,0.055555555555555546,27.722222222222218,0)" xlink:href="#aK"/></g><path fill="#333" d="M199 0l-22-63H83L61 0H9l90-248h61L250 0h-51zm-33-102l-36-108c-10 38-24 72-36 108h72" id="bd"/><path fill="#333" d="M169-182c-1-43-94-46-97-3 18 66 151 10 154 114 3 95-165 93-204 36-6-8-10-19-12-30l50-8c3 46 112 56 116 5-17-69-150-10-154-114-4-87 153-88 188-35 5 8 8 18 10 28" id="be"/><path fill="#333" d="M195 0l-88-114-31 24V0H24v-248h52v113l112-113h60L142-143 257 0h-62" id="bf"/><g id="l"><use transform="matrix(0.07407407407407407,0,0,0.07407407407407407,0,0)" xlink:href="#bd"/><use transform="matrix(0.07407407407407407,0,0,0.07407407407407407,19.185185185185183,0)" xlink:href="#be"/><use transform="matrix(0.07407407407407407,0,0,0.07407407407407407,36.96296296296296,0)" xlink:href="#bf"/></g><path fill="#333" d="M24-231v-30h32v30H24zM24 0v-190h32V0H24" id="bg"/><path fill="#333" d="M117-194c89-4 53 116 60 194h-32v-121c0-31-8-49-39-48C34-167 62-67 57 0H25l-1-190h30c1 10-1 24 2 32 11-22 29-35 61-36" id="bh"/><path fill="#333" d="M59-47c-2 24 18 29 38 22v24C64 9 27 4 27-40v-127H5v-23h24l9-43h21v43h35v23H59v120" id="bi"/><path fill="#333" d="M177-190C167-65 218 103 67 71c-23-6-38-20-44-43l32-5c15 47 100 32 89-28v-30C133-14 115 1 83 1 29 1 15-40 15-95c0-56 16-97 71-98 29-1 48 16 59 35 1-10 0-23 2-32h30zM94-22c36 0 50-32 50-73 0-42-14-75-50-75-39 0-46 34-46 75s6 73 46 73" id="bj"/><g id="m"><use transform="matrix(0.06172839506172839,0,0,0.06172839506172839,0,0)" xlink:href="#bg"/><use transform="matrix(0.06172839506172839,0,0,0.06172839506172839,4.876543209876543,0)" xlink:href="#bh"/><use transform="matrix(0.06172839506172839,0,0,0.06172839506172839,17.22222222222222,0)" xlink:href="#bi"/><use transform="matrix(0.06172839506172839,0,0,0.06172839506172839,23.39506172839506,0)" xlink:href="#ar"/><use transform="matrix(0.06172839506172839,0,0,0.06172839506172839,35.74074074074074,0)" xlink:href="#aB"/><use transform="matrix(0.06172839506172839,0,0,0.06172839506172839,43.08641975308642,0)" xlink:href="#ar"/><use transform="matrix(0.06172839506172839,0,0,0.06172839506172839,55.432098765432094,0)" xlink:href="#aE"/><use transform="matrix(0.06172839506172839,0,0,0.06172839506172839,66.5432098765432,0)" xlink:href="#bi"/><use transform="matrix(0.06172839506172839,0,0,0.06172839506172839,72.71604938271604,0)" xlink:href="#bg"/><use transform="matrix(0.06172839506172839,0,0,0.06172839506172839,77.59259259259258,0)" xlink:href="#bh"/><use transform="matrix(0.06172839506172839,0,0,0.06172839506172839,89.93827160493827,0)" xlink:href="#bj"/></g><path fill="#333" d="M145-31C134-9 116 4 85 4 32 4 16-35 15-94c0-59 17-99 70-100 32-1 48 14 60 33 0-11-1-24 2-32h30l-1 268h-32zM93-21c41 0 51-33 51-76s-8-73-50-73c-40 0-46 35-46 75s5 74 45 74" id="bk"/><path fill="#333" d="M84 4C-5 8 30-112 23-190h32v120c0 31 7 50 39 49 72-2 45-101 50-169h31l1 190h-30c-1-10 1-25-2-33-11 22-28 36-60 37" id="bl"/><g id="n"><use transform="matrix(0.06172839506172839,0,0,0.06172839506172839,0,0)" xlink:href="#bk"/><use transform="matrix(0.06172839506172839,0,0,0.06172839506172839,12.345679012345679,0)" xlink:href="#bl"/><use transform="matrix(0.06172839506172839,0,0,0.06172839506172839,24.691358024691358,0)" xlink:href="#ar"/><use transform="matrix(0.06172839506172839,0,0,0.06172839506172839,37.03703703703704,0)" xlink:href="#aE"/><use transform="matrix(0.06172839506172839,0,0,0.06172839506172839,48.14814814814815,0)" xlink:href="#bi"/><use transform="matrix(0.06172839506172839,0,0,0.06172839506172839,54.320987654320994,0)" xlink:href="#bg"/><use transform="matrix(0.06172839506172839,0,0,0.06172839506172839,59.19753086419754,0)" xlink:href="#aC"/><use transform="matrix(0.06172839506172839,0,0,0.06172839506172839,71.54320987654322,0)" xlink:href="#bh"/><use transform="matrix(0.06172839506172839,0,0,0.06172839506172839,83.8888888888889,0)" xlink:href="#aE"/></g><path fill="#333" d="M67-125c0 54 23 88 75 88 28 0 53-7 68-21v-34h-60v-39h108v91C232-14 192 4 140 4 58 4 20-42 15-125 8-236 126-280 215-234c19 10 29 26 37 47l-47 15c-11-23-29-39-63-39-53 1-75 33-75 86" id="bm"/><path fill="#333" d="M24 0v-248h195v40H76v63h132v40H76v65h150V0H24" id="bn"/><path fill="#333" d="M136-208V0H84v-208H4v-40h212v40h-80" id="bo"/><g id="o"><use transform="matrix(0.07407407407407407,0,0,0.07407407407407407,0,0)" xlink:href="#bm"/><use transform="matrix(0.07407407407407407,0,0,0.07407407407407407,20.74074074074074,0)" xlink:href="#bn"/><use transform="matrix(0.07407407407407407,0,0,0.07407407407407407,38.51851851851852,0)" xlink:href="#bo"/></g><g id="p"><use transform="matrix(0.06172839506172839,0,0,0.06172839506172839,0,0)" xlink:href="#bi"/><use transform="matrix(0.06172839506172839,0,0,0.06172839506172839,6.172839506172839,0)" xlink:href="#aq"/><use transform="matrix(0.06172839506172839,0,0,0.06172839506172839,18.51851851851852,0)" xlink:href="#ar"/></g><path fill="#333" d="M85-194c31 0 48 13 60 33l-1-100h32l1 261h-30c-2-10 0-23-3-31C134-8 116 4 85 4 32 4 16-35 15-94c0-66 23-100 70-100zm9 24c-40 0-46 34-46 75 0 40 6 74 45 74 42 0 51-32 51-76 0-42-9-74-50-73" id="bp"/><path fill="#333" d="M141-36C126-15 110 5 73 4 37 3 15-17 15-53c-1-64 63-63 125-63 3-35-9-54-41-54-24 1-41 7-42 31l-33-3c5-37 33-52 76-52 45 0 72 20 72 64v82c-1 20 7 32 28 27v20c-31 9-61-2-59-35zM48-53c0 20 12 33 32 33 41-3 63-29 60-74-43 2-92-5-92 41" id="bq"/><g id="q"><use transform="matrix(0.06172839506172839,0,0,0.06172839506172839,0,0)" xlink:href="#bp"/><use transform="matrix(0.06172839506172839,0,0,0.06172839506172839,12.345679012345679,0)" xlink:href="#bq"/><use transform="matrix(0.06172839506172839,0,0,0.06172839506172839,24.691358024691358,0)" xlink:href="#bi"/><use transform="matrix(0.06172839506172839,0,0,0.06172839506172839,30.864197530864196,0)" xlink:href="#bq"/></g><path fill="#333" d="M182 0l-62-99L58 0H3l86-130-79-118h55l55 88 55-88h55l-75 118L237 0h-55" id="br"/><path fill="#333" d="M24-248c93 1 206-16 204 79-1 75-69 88-152 82V0H24v-248zm52 121c47 0 100 7 100-41 0-47-54-39-100-39v80" id="bs"/><path fill="#333" d="M24 0v-248h52v208h133V0H24" id="bt"/><path fill="#333" d="M140-251c80 0 125 45 125 126S219 4 139 4C58 4 15-44 15-125s44-126 125-126zm-1 214c52 0 73-35 73-88 0-50-21-86-72-86-52 0-73 35-73 86s22 88 72 88" id="bu"/><path fill="#333" d="M240-174c0 40-23 61-54 70L253 0h-59l-57-94H76V0H24v-248c93 4 217-23 216 74zM76-134c48-2 112 12 112-38 0-48-66-32-112-35v73" id="bv"/><g id="r"><use transform="matrix(0.07407407407407407,0,0,0.07407407407407407,0,0)" xlink:href="#bn"/><use transform="matrix(0.07407407407407407,0,0,0.07407407407407407,17.77777777777778,0)" xlink:href="#br"/><use transform="matrix(0.07407407407407407,0,0,0.07407407407407407,35.55555555555556,0)" xlink:href="#bs"/><use transform="matrix(0.07407407407407407,0,0,0.07407407407407407,53.333333333333336,0)" xlink:href="#bt"/><use transform="matrix(0.07407407407407407,0,0,0.07407407407407407,69.55555555555556,0)" xlink:href="#bu"/><use transform="matrix(0.07407407407407407,0,0,0.07407407407407407,90.2962962962963,0)" xlink:href="#bv"/><use transform="matrix(0.07407407407407407,0,0,0.07407407407407407,109.4814814814815,0)" xlink:href="#bn"/></g><path fill="#333" d="M67-125c0 53 21 87 73 88 37 1 54-22 65-47l45 17C233-25 199 4 140 4 58 4 20-42 15-125 8-235 124-281 211-232c18 10 29 29 36 50l-46 12c-8-25-30-41-62-41-52 0-71 34-72 86" id="bw"/><path fill="#333" d="M230 0l2-204L168 0h-37L68-204 70 0H24v-248h70l56 185 57-185h69V0h-46" id="bx"/><path fill="#333" d="M238-95c0 69-44 99-111 99C63 4 22-25 22-93v-155h51v151c-1 38 19 59 55 60 90 1 49-130 58-211h52v153" id="by"/><path fill="#333" d="M175 0L67-191c6 58 2 128 3 191H24v-248h59L193-55c-6-58-2-129-3-193h46V0h-61" id="bz"/><path fill="#333" d="M24 0v-248h52V0H24" id="bA"/><g id="s"><use transform="matrix(0.07407407407407407,0,0,0.07407407407407407,0,0)" xlink:href="#bw"/><use transform="matrix(0.07407407407407407,0,0,0.07407407407407407,19.185185185185183,0)" xlink:href="#bu"/><use transform="matrix(0.07407407407407407,0,0,0.07407407407407407,39.925925925925924,0)" xlink:href="#bx"/><use transform="matrix(0.07407407407407407,0,0,0.07407407407407407,62.07407407407407,0)" xlink:href="#bx"/><use transform="matrix(0.07407407407407407,0,0,0.07407407407407407,84.22222222222221,0)" xlink:href="#by"/><use transform="matrix(0.07407407407407407,0,0,0.07407407407407407,103.40740740740739,0)" xlink:href="#bz"/><use transform="matrix(0.07407407407407407,0,0,0.07407407407407407,122.59259259259258,0)" xlink:href="#bA"/><use transform="matrix(0.07407407407407407,0,0,0.07407407407407407,130,0)" xlink:href="#bw"/><use transform="matrix(0.07407407407407407,0,0,0.07407407407407407,149.1851851851852,0)" xlink:href="#bd"/><use transform="matrix(0.07407407407407407,0,0,0.07407407407407407,166.37037037037038,0)" xlink:href="#bo"/><use transform="matrix(0.07407407407407407,0,0,0.07407407407407407,182.5925925925926,0)" xlink:href="#bn"/></g><path fill="#333" d="M24 0v-261h32V0H24" id="bB"/><g id="t"><use transform="matrix(0.06172839506172839,0,0,0.06172839506172839,0,0)" xlink:href="#aB"/><use transform="matrix(0.06172839506172839,0,0,0.06172839506172839,7.345679012345679,0)" xlink:href="#ar"/><use transform="matrix(0.06172839506172839,0,0,0.06172839506172839,19.691358024691358,0)" xlink:href="#aE"/><use transform="matrix(0.06172839506172839,0,0,0.06172839506172839,30.80246913580247,0)" xlink:href="#bl"/><use transform="matrix(0.06172839506172839,0,0,0.06172839506172839,43.148148148148145,0)" xlink:href="#bB"/><use transform="matrix(0.06172839506172839,0,0,0.06172839506172839,48.02469135802469,0)" xlink:href="#bi"/><use transform="matrix(0.06172839506172839,0,0,0.06172839506172839,54.19753086419753,0)" xlink:href="#aE"/></g><path fill="#62943a" d="M205 0l-28-72H64L36 0H1l101-248h38L239 0h-34zm-38-99l-47-123c-12 45-31 82-46 123h93" id="bC"/><path fill="#62943a" d="M135-143c-3-34-86-38-87 0 15 53 115 12 119 90S17 21 10-45l28-5c4 36 97 45 98 0-10-56-113-15-118-90-4-57 82-63 122-42 12 7 21 19 24 35" id="bD"/><path fill="#62943a" d="M143 0L79-87 56-68V0H24v-261h32v163l83-92h37l-77 82L181 0h-38" id="bE"/><g id="u"><use transform="matrix(0.055555555555555546,0,0,0.055555555555555546,0,0)" xlink:href="#bC"/><use transform="matrix(0.055555555555555546,0,0,0.055555555555555546,13.33333333333333,0)" xlink:href="#bD"/><use transform="matrix(0.055555555555555546,0,0,0.055555555555555546,23.33333333333333,0)" xlink:href="#bE"/></g><path fill="#62943a" d="M84 4C32 4 15-41 15-95c0-55 18-99 73-99 29 0 47 12 58 34l2-30h48l-1 265h-49V-32C136-9 114 4 84 4zm21-34c32 0 41-29 41-66 0-36-9-64-40-64-33 0-39 30-40 65 0 43 13 65 39 65" id="bF"/><path fill="#62943a" d="M135-194c87-1 58 113 63 194h-50c-7-57 23-157-34-157-59 0-34 97-39 157H25l-1-190h47c2 12-1 28 3 38 12-26 28-41 61-42" id="bG"/><g id="v"><use transform="matrix(0.055555555555555546,0,0,0.055555555555555546,0,0)" xlink:href="#bF"/><use transform="matrix(0.055555555555555546,0,0,0.055555555555555546,12.166666666666664,0)" xlink:href="#aI"/><use transform="matrix(0.055555555555555546,0,0,0.055555555555555546,24.33333333333333,0)" xlink:href="#aG"/><use transform="matrix(0.055555555555555546,0,0,0.055555555555555546,35.444444444444436,0)" xlink:href="#aZ"/><use transform="matrix(0.055555555555555546,0,0,0.055555555555555546,46.55555555555554,0)" xlink:href="#aM"/><use transform="matrix(0.055555555555555546,0,0,0.055555555555555546,53.16666666666665,0)" xlink:href="#aY"/><use transform="matrix(0.055555555555555546,0,0,0.055555555555555546,58.722222222222214,0)" xlink:href="#aX"/><use transform="matrix(0.055555555555555546,0,0,0.055555555555555546,70.88888888888887,0)" xlink:href="#bG"/><use transform="matrix(0.055555555555555546,0,0,0.055555555555555546,83.05555555555554,0)" xlink:href="#aZ"/></g><path fill="#62943a" d="M100-194c63 0 86 42 84 106H49c0 40 14 67 53 68 26 1 43-12 49-29l28 8c-11 28-37 45-77 45C44 4 14-33 15-96c1-61 26-98 85-98zm52 81c6-60-76-77-97-28-3 7-6 17-6 28h103" id="bH"/><path fill="#62943a" d="M24 0v-261h32V0H24" id="bI"/><path fill="#62943a" d="M141-36C126-15 110 5 73 4 37 3 15-17 15-53c-1-64 63-63 125-63 3-35-9-54-41-54-24 1-41 7-42 31l-33-3c5-37 33-52 76-52 45 0 72 20 72 64v82c-1 20 7 32 28 27v20c-31 9-61-2-59-35zM48-53c0 20 12 33 32 33 41-3 63-29 60-74-43 2-92-5-92 41" id="bJ"/><path fill="#62943a" d="M59-47c-2 24 18 29 38 22v24C64 9 27 4 27-40v-127H5v-23h24l9-43h21v43h35v23H59v120" id="bK"/><path fill="#62943a" d="M85-194c31 0 48 13 60 33l-1-100h32l1 261h-30c-2-10 0-23-3-31C134-8 116 4 85 4 32 4 16-35 15-94c0-66 23-100 70-100zm9 24c-40 0-46 34-46 75 0 40 6 74 45 74 42 0 51-32 51-76 0-42-9-74-50-73" id="bL"/><g id="w"><use transform="matrix(0.055555555555555546,0,0,0.055555555555555546,0,0)" xlink:href="#aO"/><use transform="matrix(0.055555555555555546,0,0,0.055555555555555546,6.61111111111111,0)" xlink:href="#bH"/><use transform="matrix(0.055555555555555546,0,0,0.055555555555555546,17.722222222222218,0)" xlink:href="#bI"/><use transform="matrix(0.055555555555555546,0,0,0.055555555555555546,22.111111111111107,0)" xlink:href="#bJ"/><use transform="matrix(0.055555555555555546,0,0,0.055555555555555546,33.222222222222214,0)" xlink:href="#bK"/><use transform="matrix(0.055555555555555546,0,0,0.055555555555555546,38.77777777777777,0)" xlink:href="#bH"/><use transform="matrix(0.055555555555555546,0,0,0.055555555555555546,49.88888888888888,0)" xlink:href="#bL"/></g><g id="x"><use transform="matrix(0.055555555555555546,0,0,0.055555555555555546,0,0)" xlink:href="#bK"/><use transform="matrix(0.055555555555555546,0,0,0.055555555555555546,5.5555555555555545,0)" xlink:href="#aP"/></g><path fill="#62943a" d="M84 4C-5 8 30-112 23-190h32v120c0 31 7 50 39 49 72-2 45-101 50-169h31l1 190h-30c-1-10 1-25-2-33-11 22-28 36-60 37" id="bM"/><path fill="#62943a" d="M177-190C167-65 218 103 67 71c-23-6-38-20-44-43l32-5c15 47 100 32 89-28v-30C133-14 115 1 83 1 29 1 15-40 15-95c0-56 16-97 71-98 29-1 48 16 59 35 1-10 0-23 2-32h30zM94-22c36 0 50-32 50-73 0-42-14-75-50-75-39 0-46 34-46 75s6 73 46 73" id="bN"/><g id="y"><use transform="matrix(0.055555555555555546,0,0,0.055555555555555546,0,0)" xlink:href="#aO"/><use transform="matrix(0.055555555555555546,0,0,0.055555555555555546,6.61111111111111,0)" xlink:href="#bH"/><use transform="matrix(0.055555555555555546,0,0,0.055555555555555546,17.722222222222218,0)" xlink:href="#aN"/><use transform="matrix(0.055555555555555546,0,0,0.055555555555555546,23.27777777777777,0)" xlink:href="#bM"/><use transform="matrix(0.055555555555555546,0,0,0.055555555555555546,34.38888888888888,0)" xlink:href="#bN"/><use transform="matrix(0.055555555555555546,0,0,0.055555555555555546,45.499999999999986,0)" xlink:href="#bH"/><use transform="matrix(0.055555555555555546,0,0,0.055555555555555546,56.61111111111109,0)" xlink:href="#bH"/></g><path fill="#62943a" d="M135-194c53 0 70 44 70 98 0 56-19 98-73 100-31 1-45-17-59-34 3 33 2 69 2 105H25l-1-265h48c2 10 0 23 3 31 11-24 29-35 60-35zM114-30c33 0 39-31 40-66 0-38-9-64-40-64-56 0-55 130 0 130" id="bO"/><path fill="#62943a" d="M25 0v-261h50V0H25" id="bP"/><path fill="#62943a" d="M68-38c1 34 0 65-14 84H32c9-13 17-26 17-46H33v-38h35" id="bQ"/><g id="z"><use transform="matrix(0.055555555555555546,0,0,0.055555555555555546,0,0)" xlink:href="#bO"/><use transform="matrix(0.055555555555555546,0,0,0.055555555555555546,12.166666666666664,0)" xlink:href="#aX"/><use transform="matrix(0.055555555555555546,0,0,0.055555555555555546,24.33333333333333,0)" xlink:href="#bO"/><use transform="matrix(0.055555555555555546,0,0,0.055555555555555546,36.49999999999999,0)" xlink:href="#aI"/><use transform="matrix(0.055555555555555546,0,0,0.055555555555555546,48.66666666666666,0)" xlink:href="#bP"/><use transform="matrix(0.055555555555555546,0,0,0.055555555555555546,54.222222222222214,0)" xlink:href="#aL"/><use transform="matrix(0.055555555555555546,0,0,0.055555555555555546,65.33333333333333,0)" xlink:href="#aM"/><use transform="matrix(0.055555555555555546,0,0,0.055555555555555546,71.94444444444444,0)" xlink:href="#aY"/><use transform="matrix(0.055555555555555546,0,0,0.055555555555555546,77.5,0)" xlink:href="#aX"/><use transform="matrix(0.055555555555555546,0,0,0.055555555555555546,89.66666666666666,0)" xlink:href="#bG"/><use transform="matrix(0.055555555555555546,0,0,0.055555555555555546,101.83333333333331,0)" xlink:href="#bQ"/></g><path fill="#62943a" d="M88-194c31-1 46 15 58 34l-1-101h50l1 261h-48c-2-10 0-23-3-31C134-8 116 4 84 4 32 4 16-41 15-95c0-56 19-97 73-99zm17 164c33 0 40-30 41-66 1-37-9-64-41-64s-38 30-39 65c0 43 13 65 39 65" id="bR"/><path fill="#62943a" d="M114-157C55-157 80-60 75 0H25v-261h50l-1 109c12-26 28-41 61-42 86-1 58 113 63 194h-50c-7-57 23-157-34-157" id="bS"/><path fill="#62943a" d="M190-63c-7 42-38 67-86 67-59 0-84-38-90-98-12-110 154-137 174-36l-49 2c-2-19-15-32-35-32-30 0-35 28-38 64-6 74 65 87 74 30" id="bT"/><g id="A"><use transform="matrix(0.055555555555555546,0,0,0.055555555555555546,0,0)" xlink:href="#bR"/><use transform="matrix(0.055555555555555546,0,0,0.055555555555555546,12.166666666666664,0)" xlink:href="#aG"/><use transform="matrix(0.055555555555555546,0,0,0.055555555555555546,23.27777777777777,0)" xlink:href="#ba"/><use transform="matrix(0.055555555555555546,0,0,0.055555555555555546,41.05555555555554,0)" xlink:href="#aX"/><use transform="matrix(0.055555555555555546,0,0,0.055555555555555546,53.22222222222221,0)" xlink:href="#aJ"/><use transform="matrix(0.055555555555555546,0,0,0.055555555555555546,65.38888888888887,0)" xlink:href="#aW"/><use transform="matrix(0.055555555555555546,0,0,0.055555555555555546,73.16666666666664,0)" xlink:href="#aL"/><use transform="matrix(0.055555555555555546,0,0,0.055555555555555546,84.27777777777776,0)" xlink:href="#bO"/><use transform="matrix(0.055555555555555546,0,0,0.055555555555555546,96.44444444444443,0)" xlink:href="#bS"/><use transform="matrix(0.055555555555555546,0,0,0.055555555555555546,108.61111111111109,0)" xlink:href="#aY"/><use transform="matrix(0.055555555555555546,0,0,0.055555555555555546,114.16666666666664,0)" xlink:href="#bT"/><use transform="matrix(0.055555555555555546,0,0,0.055555555555555546,125.27777777777776,0)" xlink:href="#aZ"/></g><path fill="#62943a" d="M117-194c89-4 53 116 60 194h-32v-121c0-31-8-49-39-48C34-167 62-67 57 0H25l-1-190h30c1 10-1 24 2 32 11-22 29-35 61-36" id="bU"/><g id="B"><use transform="matrix(0.055555555555555546,0,0,0.055555555555555546,0,0)" xlink:href="#bJ"/><use transform="matrix(0.055555555555555546,0,0,0.055555555555555546,11.111111111111109,0)" xlink:href="#bU"/><use transform="matrix(0.055555555555555546,0,0,0.055555555555555546,22.222222222222218,0)" xlink:href="#bL"/></g><g id="C"><use transform="matrix(0.055555555555555546,0,0,0.055555555555555546,0,0)" xlink:href="#aM"/><use transform="matrix(0.055555555555555546,0,0,0.055555555555555546,6.61111111111111,0)" xlink:href="#aG"/><use transform="matrix(0.055555555555555546,0,0,0.055555555555555546,17.722222222222218,0)" xlink:href="#aW"/><use transform="matrix(0.055555555555555546,0,0,0.055555555555555546,25.499999999999993,0)" xlink:href="#aW"/><use transform="matrix(0.055555555555555546,0,0,0.055555555555555546,33.27777777777777,0)" xlink:href="#aX"/><use transform="matrix(0.055555555555555546,0,0,0.055555555555555546,45.444444444444436,0)" xlink:href="#aW"/><use transform="matrix(0.055555555555555546,0,0,0.055555555555555546,53.222222222222214,0)" xlink:href="#aY"/><use transform="matrix(0.055555555555555546,0,0,0.055555555555555546,58.777777777777764,0)" xlink:href="#aZ"/><use transform="matrix(0.055555555555555546,0,0,0.055555555555555546,69.88888888888889,0)" xlink:href="#aM"/></g><path fill="#62943a" d="M147 0L96-86 75-71V0H25v-261h50v150l67-79h53l-66 74L201 0h-54" id="bV"/><g id="D"><use transform="matrix(0.055555555555555546,0,0,0.055555555555555546,0,0)" xlink:href="#aL"/><use transform="matrix(0.055555555555555546,0,0,0.055555555555555546,11.111111111111109,0)" xlink:href="#aM"/><use transform="matrix(0.055555555555555546,0,0,0.055555555555555546,17.722222222222218,0)" xlink:href="#aM"/><use transform="matrix(0.055555555555555546,0,0,0.055555555555555546,24.33333333333333,0)" xlink:href="#aL"/><use transform="matrix(0.055555555555555546,0,0,0.055555555555555546,35.444444444444436,0)" xlink:href="#bT"/><use transform="matrix(0.055555555555555546,0,0,0.055555555555555546,46.55555555555554,0)" xlink:href="#bV"/><use transform="matrix(0.055555555555555546,0,0,0.055555555555555546,57.66666666666666,0)" xlink:href="#aZ"/></g><path fill="#62943a" d="M24-248c93 1 206-16 204 79-1 75-69 88-152 82V0H24v-248zm52 121c47 0 100 7 100-41 0-47-54-39-100-39v80" id="bW"/><g id="E"><use transform="matrix(0.055555555555555546,0,0,0.055555555555555546,0,0)" xlink:href="#bW"/><use transform="matrix(0.055555555555555546,0,0,0.055555555555555546,13.33333333333333,0)" xlink:href="#aW"/><use transform="matrix(0.055555555555555546,0,0,0.055555555555555546,21.111111111111107,0)" xlink:href="#aG"/><use transform="matrix(0.055555555555555546,0,0,0.055555555555555546,32.222222222222214,0)" xlink:href="#bO"/><use transform="matrix(0.055555555555555546,0,0,0.055555555555555546,44.38888888888888,0)" xlink:href="#aW"/><use transform="matrix(0.055555555555555546,0,0,0.055555555555555546,52.16666666666666,0)" xlink:href="#aX"/><use transform="matrix(0.055555555555555546,0,0,0.055555555555555546,64.33333333333331,0)" xlink:href="#bT"/><use transform="matrix(0.055555555555555546,0,0,0.055555555555555546,75.44444444444443,0)" xlink:href="#aG"/><use transform="matrix(0.055555555555555546,0,0,0.055555555555555546,86.55555555555554,0)" xlink:href="#aZ"/><use transform="matrix(0.055555555555555546,0,0,0.055555555555555546,97.66666666666666,0)" xlink:href="#aZ"/></g><path fill="#62943a" d="M106-169C34-169 62-67 57 0H25v-261h32l-1 103c12-21 28-36 61-36 89 0 53 116 60 194h-32v-121c2-32-8-49-39-48" id="bX"/><g id="F"><use transform="matrix(0.055555555555555546,0,0,0.055555555555555546,0,0)" xlink:href="#bK"/><use transform="matrix(0.055555555555555546,0,0,0.055555555555555546,5.5555555555555545,0)" xlink:href="#bX"/><use transform="matrix(0.055555555555555546,0,0,0.055555555555555546,16.666666666666664,0)" xlink:href="#bH"/></g><g id="G"><use transform="matrix(0.055555555555555546,0,0,0.055555555555555546,0,0)" xlink:href="#bL"/><use transform="matrix(0.055555555555555546,0,0,0.055555555555555546,11.111111111111109,0)" xlink:href="#bJ"/><use transform="matrix(0.055555555555555546,0,0,0.055555555555555546,22.222222222222218,0)" xlink:href="#bK"/><use transform="matrix(0.055555555555555546,0,0,0.055555555555555546,27.77777777777777,0)" xlink:href="#bJ"/></g><path fill="#62943a" d="M128 0H69L1-190h53L99-40l48-150h52" id="bY"/><g id="H"><use transform="matrix(0.055555555555555546,0,0,0.055555555555555546,0,0)" xlink:href="#aR"/><use transform="matrix(0.055555555555555546,0,0,0.055555555555555546,14.388888888888886,0)" xlink:href="#bG"/><use transform="matrix(0.055555555555555546,0,0,0.055555555555555546,26.55555555555555,0)" xlink:href="#bT"/><use transform="matrix(0.055555555555555546,0,0,0.055555555555555546,37.66666666666666,0)" xlink:href="#aX"/><use transform="matrix(0.055555555555555546,0,0,0.055555555555555546,49.83333333333332,0)" xlink:href="#bY"/><use transform="matrix(0.055555555555555546,0,0,0.055555555555555546,60.944444444444436,0)" xlink:href="#aG"/><use transform="matrix(0.055555555555555546,0,0,0.055555555555555546,72.05555555555554,0)" xlink:href="#aW"/></g><path fill="#62943a" d="M24-231v-30h32v30H24zM24 0v-190h32V0H24" id="bZ"/><g id="I"><use transform="matrix(0.055555555555555546,0,0,0.055555555555555546,0,0)" xlink:href="#bX"/><use transform="matrix(0.055555555555555546,0,0,0.055555555555555546,11.111111111111109,0)" xlink:href="#bZ"/><use transform="matrix(0.055555555555555546,0,0,0.055555555555555546,15.499999999999996,0)" xlink:href="#bL"/><use transform="matrix(0.055555555555555546,0,0,0.055555555555555546,26.611111111111107,0)" xlink:href="#bL"/><use transform="matrix(0.055555555555555546,0,0,0.055555555555555546,37.722222222222214,0)" xlink:href="#bH"/><use transform="matrix(0.055555555555555546,0,0,0.055555555555555546,48.83333333333332,0)" xlink:href="#bU"/></g><path fill="#62943a" d="M76-54c-1 42 2 86-19 110H24C36 42 46 24 48 0H25v-54h51" id="ca"/><g id="J"><use transform="matrix(0.055555555555555546,0,0,0.055555555555555546,0,0)" xlink:href="#bO"/><use transform="matrix(0.055555555555555546,0,0,0.055555555555555546,12.166666666666664,0)" xlink:href="#aL"/><use transform="matrix(0.055555555555555546,0,0,0.055555555555555546,23.27777777777777,0)" xlink:href="#aM"/><use transform="matrix(0.055555555555555546,0,0,0.055555555555555546,29.888888888888882,0)" xlink:href="#aM"/><use transform="matrix(0.055555555555555546,0,0,0.055555555555555546,36.49999999999999,0)" xlink:href="#aG"/><use transform="matrix(0.055555555555555546,0,0,0.055555555555555546,47.6111111111111,0)" xlink:href="#aW"/><use transform="matrix(0.055555555555555546,0,0,0.055555555555555546,55.38888888888888,0)" xlink:href="#bG"/><use transform="matrix(0.055555555555555546,0,0,0.055555555555555546,67.55555555555554,0)" xlink:href="#aZ"/><use transform="matrix(0.055555555555555546,0,0,0.055555555555555546,78.66666666666666,0)" xlink:href="#ca"/></g><g id="K"><use transform="matrix(0.055555555555555546,0,0,0.055555555555555546,0,0)" xlink:href="#aW"/><use transform="matrix(0.055555555555555546,0,0,0.055555555555555546,7.777777777777777,0)" xlink:href="#aG"/><use transform="matrix(0.055555555555555546,0,0,0.055555555555555546,18.888888888888886,0)" xlink:href="#bP"/><use transform="matrix(0.055555555555555546,0,0,0.055555555555555546,24.44444444444444,0)" xlink:href="#aL"/><use transform="matrix(0.055555555555555546,0,0,0.055555555555555546,35.55555555555555,0)" xlink:href="#aM"/><use transform="matrix(0.055555555555555546,0,0,0.055555555555555546,42.16666666666666,0)" xlink:href="#aY"/><use transform="matrix(0.055555555555555546,0,0,0.055555555555555546,47.722222222222214,0)" xlink:href="#aX"/><use transform="matrix(0.055555555555555546,0,0,0.055555555555555546,59.88888888888888,0)" xlink:href="#bG"/><use transform="matrix(0.055555555555555546,0,0,0.055555555555555546,72.05555555555554,0)" xlink:href="#aZ"/><use transform="matrix(0.055555555555555546,0,0,0.055555555555555546,83.16666666666666,0)" xlink:href="#bS"/><use transform="matrix(0.055555555555555546,0,0,0.055555555555555546,95.33333333333331,0)" xlink:href="#aY"/><use transform="matrix(0.055555555555555546,0,0,0.055555555555555546,100.88888888888887,0)" xlink:href="#bO"/><use transform="matrix(0.055555555555555546,0,0,0.055555555555555546,113.05555555555554,0)" xlink:href="#aZ"/></g><g id="L"><use transform="matrix(0.055555555555555546,0,0,0.055555555555555546,0,0)" xlink:href="#aL"/><use transform="matrix(0.055555555555555546,0,0,0.055555555555555546,11.111111111111109,0)" xlink:href="#bG"/><use transform="matrix(0.055555555555555546,0,0,0.055555555555555546,23.27777777777777,0)" xlink:href="#bR"/></g><g id="M"><use transform="matrix(0.055555555555555546,0,0,0.055555555555555546,0,0)" xlink:href="#aM"/><use transform="matrix(0.055555555555555546,0,0,0.055555555555555546,6.61111111111111,0)" xlink:href="#aW"/><use transform="matrix(0.055555555555555546,0,0,0.055555555555555546,14.388888888888886,0)" xlink:href="#aG"/><use transform="matrix(0.055555555555555546,0,0,0.055555555555555546,25.499999999999993,0)" xlink:href="#bG"/><use transform="matrix(0.055555555555555546,0,0,0.055555555555555546,37.66666666666666,0)" xlink:href="#bR"/><use transform="matrix(0.055555555555555546,0,0,0.055555555555555546,49.83333333333332,0)" xlink:href="#aZ"/></g><g id="N"><use transform="matrix(0.055555555555555546,0,0,0.055555555555555546,0,0)" xlink:href="#aP"/><use transform="matrix(0.055555555555555546,0,0,0.055555555555555546,11.111111111111109,0)" xlink:href="#bU"/></g><g id="O"><use transform="matrix(0.055555555555555546,0,0,0.055555555555555546,0,0)" xlink:href="#bK"/><use transform="matrix(0.055555555555555546,0,0,0.055555555555555546,5.5555555555555545,0)" xlink:href="#bX"/><use transform="matrix(0.055555555555555546,0,0,0.055555555555555546,16.666666666666664,0)" xlink:href="#bH"/></g><g id="P"><use transform="matrix(0.055555555555555546,0,0,0.055555555555555546,0,0)" xlink:href="#aO"/><use transform="matrix(0.055555555555555546,0,0,0.055555555555555546,6.61111111111111,0)" xlink:href="#bH"/><use transform="matrix(0.055555555555555546,0,0,0.055555555555555546,17.722222222222218,0)" xlink:href="#aN"/><use transform="matrix(0.055555555555555546,0,0,0.055555555555555546,23.27777777777777,0)" xlink:href="#bM"/><use transform="matrix(0.055555555555555546,0,0,0.055555555555555546,34.38888888888888,0)" xlink:href="#bN"/><use transform="matrix(0.055555555555555546,0,0,0.055555555555555546,45.499999999999986,0)" xlink:href="#bH"/><use transform="matrix(0.055555555555555546,0,0,0.055555555555555546,56.61111111111109,0)" xlink:href="#bH"/></g><g id="Q"><use transform="matrix(0.055555555555555546,0,0,0.055555555555555546,0,0)" xlink:href="#bL"/><use transform="matrix(0.055555555555555546,0,0,0.055555555555555546,11.111111111111109,0)" xlink:href="#bJ"/><use transform="matrix(0.055555555555555546,0,0,0.055555555555555546,22.222222222222218,0)" xlink:href="#bK"/><use transform="matrix(0.055555555555555546,0,0,0.055555555555555546,27.77777777777777,0)" xlink:href="#bJ"/></g><path fill="#62943a" d="M147 0H94L2-248h55l64 206c17-72 42-137 63-206h54" id="cb"/><path fill="#62943a" d="M12 0v-35l95-120H19v-35h142v35L67-36h103V0H12" id="cc"/><g id="R"><use transform="matrix(0.055555555555555546,0,0,0.055555555555555546,0,0)" xlink:href="#cb"/><use transform="matrix(0.055555555555555546,0,0,0.055555555555555546,12.944444444444441,0)" xlink:href="#aY"/><use transform="matrix(0.055555555555555546,0,0,0.055555555555555546,18.499999999999996,0)" xlink:href="#aZ"/><use transform="matrix(0.055555555555555546,0,0,0.055555555555555546,29.611111111111107,0)" xlink:href="#aI"/><use transform="matrix(0.055555555555555546,0,0,0.055555555555555546,41.77777777777777,0)" xlink:href="#aL"/><use transform="matrix(0.055555555555555546,0,0,0.055555555555555546,52.88888888888888,0)" xlink:href="#bP"/><use transform="matrix(0.055555555555555546,0,0,0.055555555555555546,58.444444444444436,0)" xlink:href="#aY"/><use transform="matrix(0.055555555555555546,0,0,0.055555555555555546,63.999999999999986,0)" xlink:href="#cc"/><use transform="matrix(0.055555555555555546,0,0,0.055555555555555546,73.99999999999999,0)" xlink:href="#aG"/></g><g id="S"><use transform="matrix(0.055555555555555546,0,0,0.055555555555555546,0,0)" xlink:href="#bR"/><use transform="matrix(0.055555555555555546,0,0,0.055555555555555546,12.166666666666664,0)" xlink:href="#aL"/><use transform="matrix(0.055555555555555546,0,0,0.055555555555555546,23.27777777777777,0)" xlink:href="#aM"/><use transform="matrix(0.055555555555555546,0,0,0.055555555555555546,29.888888888888882,0)" xlink:href="#aL"/></g><g id="T"><use transform="matrix(0.055555555555555546,0,0,0.055555555555555546,0,0)" xlink:href="#aP"/><use transform="matrix(0.055555555555555546,0,0,0.055555555555555546,11.111111111111109,0)" xlink:href="#bU"/></g><g id="U"><use transform="matrix(0.055555555555555546,0,0,0.055555555555555546,0,0)" xlink:href="#aY"/><use transform="matrix(0.055555555555555546,0,0,0.055555555555555546,5.5555555555555545,0)" xlink:href="#bG"/><use transform="matrix(0.055555555555555546,0,0,0.055555555555555546,17.722222222222218,0)" xlink:href="#aM"/><use transform="matrix(0.055555555555555546,0,0,0.055555555555555546,24.33333333333333,0)" xlink:href="#aG"/><use transform="matrix(0.055555555555555546,0,0,0.055555555555555546,35.444444444444436,0)" xlink:href="#aW"/><use transform="matrix(0.055555555555555546,0,0,0.055555555555555546,43.222222222222214,0)" xlink:href="#aL"/><use transform="matrix(0.055555555555555546,0,0,0.055555555555555546,54.33333333333332,0)" xlink:href="#bT"/><use transform="matrix(0.055555555555555546,0,0,0.055555555555555546,65.44444444444443,0)" xlink:href="#aM"/><use transform="matrix(0.055555555555555546,0,0,0.055555555555555546,72.05555555555554,0)" xlink:href="#aY"/><use transform="matrix(0.055555555555555546,0,0,0.055555555555555546,77.6111111111111,0)" xlink:href="#bY"/><use transform="matrix(0.055555555555555546,0,0,0.055555555555555546,88.72222222222221,0)" xlink:href="#aG"/></g><g id="V"><use transform="matrix(0.055555555555555546,0,0,0.055555555555555546,0,0)" xlink:href="#bO"/><use transform="matrix(0.055555555555555546,0,0,0.055555555555555546,12.166666666666664,0)" xlink:href="#bP"/><use transform="matrix(0.055555555555555546,0,0,0.055555555555555546,17.722222222222218,0)" xlink:href="#aX"/><use transform="matrix(0.055555555555555546,0,0,0.055555555555555546,29.888888888888882,0)" xlink:href="#aM"/><use transform="matrix(0.055555555555555546,0,0,0.055555555555555546,36.49999999999999,0)" xlink:href="#aZ"/></g><path fill="#62943a" d="M182-130c37 4 62 22 62 59C244 23 116-4 24 0v-248c84 5 203-23 205 63 0 31-19 50-47 55zM76-148c40-3 101 13 101-30 0-44-60-28-101-31v61zm0 110c48-3 116 14 116-37 0-48-69-32-116-35v72" id="cd"/><g id="W"><use transform="matrix(0.055555555555555546,0,0,0.055555555555555546,0,0)" xlink:href="#cd"/><use transform="matrix(0.055555555555555546,0,0,0.055555555555555546,14.388888888888886,0)" xlink:href="#aI"/><use transform="matrix(0.055555555555555546,0,0,0.055555555555555546,26.55555555555555,0)" xlink:href="#aY"/><use transform="matrix(0.055555555555555546,0,0,0.055555555555555546,32.11111111111111,0)" xlink:href="#bP"/><use transform="matrix(0.055555555555555546,0,0,0.055555555555555546,37.666666666666664,0)" xlink:href="#bR"/></g><use transform="matrix(0.055555555555555546,0,0,0.055555555555555546,0,0)" xlink:href="#aL" id="X"/><path fill="#62943a" d="M123 10C108 53 80 86 19 72V37c35 8 53-11 59-39L3-190h52l48 148c12-52 28-100 44-148h51" id="ce"/><g id="Y"><use transform="matrix(0.055555555555555546,0,0,0.055555555555555546,0,0)" xlink:href="#aZ"/><use transform="matrix(0.055555555555555546,0,0,0.055555555555555546,11.111111111111109,0)" xlink:href="#aM"/><use transform="matrix(0.055555555555555546,0,0,0.055555555555555546,17.722222222222218,0)" xlink:href="#aX"/><use transform="matrix(0.055555555555555546,0,0,0.055555555555555546,29.888888888888882,0)" xlink:href="#aW"/><use transform="matrix(0.055555555555555546,0,0,0.055555555555555546,37.66666666666666,0)" xlink:href="#ce"/></g><g id="Z"><use transform="matrix(0.055555555555555546,0,0,0.055555555555555546,0,0)" xlink:href="#aN"/><use transform="matrix(0.055555555555555546,0,0,0.055555555555555546,5.5555555555555545,0)" xlink:href="#aO"/><use transform="matrix(0.055555555555555546,0,0,0.055555555555555546,12.166666666666664,0)" xlink:href="#aP"/><use transform="matrix(0.055555555555555546,0,0,0.055555555555555546,23.27777777777777,0)" xlink:href="#aQ"/></g><g id="aa"><use transform="matrix(0.055555555555555546,0,0,0.055555555555555546,0,0)" xlink:href="#bK"/><use transform="matrix(0.055555555555555546,0,0,0.055555555555555546,5.5555555555555545,0)" xlink:href="#bX"/><use transform="matrix(0.055555555555555546,0,0,0.055555555555555546,16.666666666666664,0)" xlink:href="#bH"/></g><path fill="#62943a" d="M115-194c55 1 70 41 70 98S169 2 115 4C84 4 66-9 55-30l1 105H24l-1-265h31l2 30c10-21 28-34 59-34zm-8 174c40 0 45-34 45-75s-6-73-45-74c-42 0-51 32-51 76 0 43 10 73 51 73" id="cf"/><g id="ab"><use transform="matrix(0.055555555555555546,0,0,0.055555555555555546,0,0)" xlink:href="#bN"/><use transform="matrix(0.055555555555555546,0,0,0.055555555555555546,11.111111111111109,0)" xlink:href="#aO"/><use transform="matrix(0.055555555555555546,0,0,0.055555555555555546,17.722222222222218,0)" xlink:href="#bJ"/><use transform="matrix(0.055555555555555546,0,0,0.055555555555555546,28.83333333333333,0)" xlink:href="#cf"/><use transform="matrix(0.055555555555555546,0,0,0.055555555555555546,39.944444444444436,0)" xlink:href="#bX"/><use transform="matrix(0.055555555555555546,0,0,0.055555555555555546,51.05555555555554,0)" xlink:href="#bD"/></g><path fill="#333" d="M24-248c120-7 223 5 221 122C244-46 201 0 124 0H24v-248zM76-40c74 7 117-18 117-86 0-67-45-88-117-82v168" id="cg"/><g id="ac"><use transform="matrix(0.07407407407407407,0,0,0.07407407407407407,0,0)" xlink:href="#bx"/><use transform="matrix(0.07407407407407407,0,0,0.07407407407407407,22.148148148148145,0)" xlink:href="#bu"/><use transform="matrix(0.07407407407407407,0,0,0.07407407407407407,42.888888888888886,0)" xlink:href="#cg"/><use transform="matrix(0.07407407407407407,0,0,0.07407407407407407,62.07407407407407,0)" xlink:href="#bn"/><use transform="matrix(0.07407407407407407,0,0,0.07407407407407407,79.85185185185185,0)" xlink:href="#bt"/></g><path fill="#5e5e5e" d="M135-194c87-1 58 113 63 194h-50c-7-57 23-157-34-157-59 0-34 97-39 157H25l-1-190h47c2 12-1 28 3 38 12-26 28-41 61-42" id="ch"/><path fill="#5e5e5e" d="M110-194c64 0 96 36 96 99 0 64-35 99-97 99-61 0-95-36-95-99 0-62 34-99 96-99zm-1 164c35 0 45-28 45-65 0-40-10-65-43-65-34 0-45 26-45 65 0 36 10 65 43 65" id="ci"/><path fill="#5e5e5e" d="M115-3C79 11 28 4 28-45v-112H4v-33h27l15-45h31v45h36v33H77v99c-1 23 16 31 38 25v30" id="cj"/><g id="ad"><use transform="matrix(0.055555555555555546,0,0,0.055555555555555546,0,0)" xlink:href="#ch"/><use transform="matrix(0.055555555555555546,0,0,0.055555555555555546,12.166666666666664,0)" xlink:href="#ci"/><use transform="matrix(0.055555555555555546,0,0,0.055555555555555546,24.33333333333333,0)" xlink:href="#cj"/></g><path fill="#5e5e5e" d="M133-34C117-15 103 5 69 4 32 3 11-16 11-54c-1-60 55-63 116-61 1-26-3-47-28-47-18 1-26 9-28 27l-52-2c7-38 36-58 82-57s74 22 75 68l1 82c-1 14 12 18 25 15v27c-30 8-71 5-69-32zm-48 3c29 0 43-24 42-57-32 0-66-3-65 30 0 17 8 27 23 27" id="ck"/><path fill="#5e5e5e" d="M135-194c53 0 70 44 70 98 0 56-19 98-73 100-31 1-45-17-59-34 3 33 2 69 2 105H25l-1-265h48c2 10 0 23 3 31 11-24 29-35 60-35zM114-30c33 0 39-31 40-66 0-38-9-64-40-64-56 0-55 130 0 130" id="cl"/><path fill="#5e5e5e" d="M25 0v-261h50V0H25" id="cm"/><path fill="#5e5e5e" d="M25-224v-37h50v37H25zM25 0v-190h50V0H25" id="cn"/><path fill="#5e5e5e" d="M190-63c-7 42-38 67-86 67-59 0-84-38-90-98-12-110 154-137 174-36l-49 2c-2-19-15-32-35-32-30 0-35 28-38 64-6 74 65 87 74 30" id="co"/><path fill="#5e5e5e" d="M135-194c52 0 70 43 70 98 0 56-19 99-73 100-30 1-46-15-58-35L72 0H24l1-261h50v104c11-23 29-37 60-37zM114-30c31 0 40-27 40-66 0-37-7-63-39-63s-41 28-41 65c0 36 8 64 40 64" id="cp"/><path fill="#5e5e5e" d="M185-48c-13 30-37 53-82 52C43 2 14-33 14-96s30-98 90-98c62 0 83 45 84 108H66c0 31 8 55 39 56 18 0 30-7 34-22zm-45-69c5-46-57-63-70-21-2 6-4 13-4 21h74" id="cq"/><g id="ae"><use transform="matrix(0.055555555555555546,0,0,0.055555555555555546,0,0)" xlink:href="#ck"/><use transform="matrix(0.055555555555555546,0,0,0.055555555555555546,11.111111111111109,0)" xlink:href="#cl"/><use transform="matrix(0.055555555555555546,0,0,0.055555555555555546,23.27777777777777,0)" xlink:href="#cl"/><use transform="matrix(0.055555555555555546,0,0,0.055555555555555546,35.444444444444436,0)" xlink:href="#cm"/><use transform="matrix(0.055555555555555546,0,0,0.055555555555555546,40.99999999999999,0)" xlink:href="#cn"/><use transform="matrix(0.055555555555555546,0,0,0.055555555555555546,46.55555555555555,0)" xlink:href="#co"/><use transform="matrix(0.055555555555555546,0,0,0.055555555555555546,57.66666666666666,0)" xlink:href="#ck"/><use transform="matrix(0.055555555555555546,0,0,0.055555555555555546,68.77777777777777,0)" xlink:href="#cp"/><use transform="matrix(0.055555555555555546,0,0,0.055555555555555546,80.94444444444443,0)" xlink:href="#cm"/><use transform="matrix(0.055555555555555546,0,0,0.055555555555555546,86.49999999999999,0)" xlink:href="#cq"/></g><g id="af"><use transform="matrix(0.055555555555555546,0,0,0.055555555555555546,0,0)" xlink:href="#cj"/><use transform="matrix(0.055555555555555546,0,0,0.055555555555555546,6.61111111111111,0)" xlink:href="#ci"/></g><path fill="#5e5e5e" d="M114-157C55-157 80-60 75 0H25v-261h50l-1 109c12-26 28-41 61-42 86-1 58 113 63 194h-50c-7-57 23-157-34-157" id="cr"/><path fill="#5e5e5e" d="M137-138c1-29-70-34-71-4 15 46 118 7 119 86 1 83-164 76-172 9l43-7c4 19 20 25 44 25 33 8 57-30 24-41C81-84 22-81 20-136c-2-80 154-74 161-7" id="cs"/><g id="ag"><use transform="matrix(0.055555555555555546,0,0,0.055555555555555546,0,0)" xlink:href="#cj"/><use transform="matrix(0.055555555555555546,0,0,0.055555555555555546,6.61111111111111,0)" xlink:href="#cr"/><use transform="matrix(0.055555555555555546,0,0,0.055555555555555546,18.777777777777775,0)" xlink:href="#cn"/><use transform="matrix(0.055555555555555546,0,0,0.055555555555555546,24.33333333333333,0)" xlink:href="#cs"/></g><path fill="#5e5e5e" d="M85 4C-2 5 27-109 22-190h50c7 57-23 150 33 157 60-5 35-97 40-157h50l1 190h-47c-2-12 1-28-3-38-12 25-28 42-61 42" id="ct"/><path fill="#5e5e5e" d="M88-194c31-1 46 15 58 34l-1-101h50l1 261h-48c-2-10 0-23-3-31C134-8 116 4 84 4 32 4 16-41 15-95c0-56 19-97 73-99zm17 164c33 0 40-30 41-66 1-37-9-64-41-64s-38 30-39 65c0 43 13 65 39 65" id="cu"/><path fill="#5e5e5e" d="M123 10C108 53 80 86 19 72V37c35 8 53-11 59-39L3-190h52l48 148c12-52 28-100 44-148h51" id="cv"/><g id="ah"><use transform="matrix(0.055555555555555546,0,0,0.055555555555555546,0,0)" xlink:href="#cs"/><use transform="matrix(0.055555555555555546,0,0,0.055555555555555546,11.111111111111109,0)" xlink:href="#cj"/><use transform="matrix(0.055555555555555546,0,0,0.055555555555555546,17.722222222222218,0)" xlink:href="#ct"/><use transform="matrix(0.055555555555555546,0,0,0.055555555555555546,29.888888888888882,0)" xlink:href="#cu"/><use transform="matrix(0.055555555555555546,0,0,0.055555555555555546,42.05555555555554,0)" xlink:href="#cv"/></g><path fill="#5e5e5e" d="M141-36C126-15 110 5 73 4 37 3 15-17 15-53c-1-64 63-63 125-63 3-35-9-54-41-54-24 1-41 7-42 31l-33-3c5-37 33-52 76-52 45 0 72 20 72 64v82c-1 20 7 32 28 27v20c-31 9-61-2-59-35zM48-53c0 20 12 33 32 33 41-3 63-29 60-74-43 2-92-5-92 41" id="cw"/><path fill="#5e5e5e" d="M135-143c-3-34-86-38-87 0 15 53 115 12 119 90S17 21 10-45l28-5c4 36 97 45 98 0-10-56-113-15-118-90-4-57 82-63 122-42 12 7 21 19 24 35" id="cx"/><g id="ai"><use transform="matrix(0.055555555555555546,0,0,0.055555555555555546,0,0)" xlink:href="#cw"/><use transform="matrix(0.055555555555555546,0,0,0.055555555555555546,11.111111111111109,0)" xlink:href="#cx"/></g><path fill="#5e5e5e" d="M206 0h-36l-40-164L89 0H53L-1-190h32L70-26l43-164h34l41 164 42-164h31" id="cy"/><path fill="#5e5e5e" d="M100-194c63 0 86 42 84 106H49c0 40 14 67 53 68 26 1 43-12 49-29l28 8c-11 28-37 45-77 45C44 4 14-33 15-96c1-61 26-98 85-98zm52 81c6-60-76-77-97-28-3 7-6 17-6 28h103" id="cz"/><g id="aj"><use transform="matrix(0.055555555555555546,0,0,0.055555555555555546,0,0)" xlink:href="#cy"/><use transform="matrix(0.055555555555555546,0,0,0.055555555555555546,14.388888888888886,0)" xlink:href="#cz"/></g><path fill="#5e5e5e" d="M114-163C36-179 61-72 57 0H25l-1-190h30c1 12-1 29 2 39 6-27 23-49 58-41v29" id="cA"/><g id="ak"><use transform="matrix(0.055555555555555546,0,0,0.055555555555555546,0,0)" xlink:href="#cw"/><use transform="matrix(0.055555555555555546,0,0,0.055555555555555546,11.111111111111109,0)" xlink:href="#cA"/><use transform="matrix(0.055555555555555546,0,0,0.055555555555555546,17.722222222222218,0)" xlink:href="#cz"/></g><path fill="#5e5e5e" d="M100-194c62-1 85 37 85 99 1 63-27 99-86 99S16-35 15-95c0-66 28-99 85-99zM99-20c44 1 53-31 53-75 0-43-8-75-51-75s-53 32-53 75 10 74 51 75" id="cB"/><path fill="#5e5e5e" d="M117-194c89-4 53 116 60 194h-32v-121c0-31-8-49-39-48C34-167 62-67 57 0H25l-1-190h30c1 10-1 24 2 32 11-22 29-35 61-36" id="cC"/><path fill="#5e5e5e" d="M24 0v-261h32V0H24" id="cD"/><path fill="#5e5e5e" d="M179-190L93 31C79 59 56 82 12 73V49c39 6 53-20 64-50L1-190h34L92-34l54-156h33" id="cE"/><g id="al"><use transform="matrix(0.055555555555555546,0,0,0.055555555555555546,0,0)" xlink:href="#cB"/><use transform="matrix(0.055555555555555546,0,0,0.055555555555555546,11.111111111111109,0)" xlink:href="#cC"/><use transform="matrix(0.055555555555555546,0,0,0.055555555555555546,22.222222222222218,0)" xlink:href="#cD"/><use transform="matrix(0.055555555555555546,0,0,0.055555555555555546,26.611111111111107,0)" xlink:href="#cE"/></g><path fill="#5e5e5e" d="M85-194c31 0 48 13 60 33l-1-100h32l1 261h-30c-2-10 0-23-3-31C134-8 116 4 85 4 32 4 16-35 15-94c0-66 23-100 70-100zm9 24c-40 0-46 34-46 75 0 40 6 74 45 74 42 0 51-32 51-76 0-42-9-74-50-73" id="cF"/><path fill="#5e5e5e" d="M24-231v-30h32v30H24zM24 0v-190h32V0H24" id="cG"/><path fill="#5e5e5e" d="M177-190C167-65 218 103 67 71c-23-6-38-20-44-43l32-5c15 47 100 32 89-28v-30C133-14 115 1 83 1 29 1 15-40 15-95c0-56 16-97 71-98 29-1 48 16 59 35 1-10 0-23 2-32h30zM94-22c36 0 50-32 50-73 0-42-14-75-50-75-39 0-46 34-46 75s6 73 46 73" id="cH"/><g id="am"><use transform="matrix(0.055555555555555546,0,0,0.055555555555555546,0,0)" xlink:href="#cF"/><use transform="matrix(0.055555555555555546,0,0,0.055555555555555546,11.111111111111109,0)" xlink:href="#cB"/><use transform="matrix(0.055555555555555546,0,0,0.055555555555555546,22.222222222222218,0)" xlink:href="#cG"/><use transform="matrix(0.055555555555555546,0,0,0.055555555555555546,26.611111111111107,0)" xlink:href="#cC"/><use transform="matrix(0.055555555555555546,0,0,0.055555555555555546,37.722222222222214,0)" xlink:href="#cH"/></g><path fill="#5e5e5e" d="M141 0L90-78 38 0H4l68-98-65-92h35l48 74 47-74h35l-64 92 68 98h-35" id="cI"/><path fill="#5e5e5e" d="M115-194c55 1 70 41 70 98S169 2 115 4C84 4 66-9 55-30l1 105H24l-1-265h31l2 30c10-21 28-34 59-34zm-8 174c40 0 45-34 45-75s-6-73-45-74c-42 0-51 32-51 76 0 43 10 73 51 73" id="cJ"/><path fill="#5e5e5e" d="M59-47c-2 24 18 29 38 22v24C64 9 27 4 27-40v-127H5v-23h24l9-43h21v43h35v23H59v120" id="cK"/><g id="an"><use transform="matrix(0.055555555555555546,0,0,0.055555555555555546,0,0)" xlink:href="#cz"/><use transform="matrix(0.055555555555555546,0,0,0.055555555555555546,11.111111111111109,0)" xlink:href="#cI"/><use transform="matrix(0.055555555555555546,0,0,0.055555555555555546,21.111111111111107,0)" xlink:href="#cJ"/><use transform="matrix(0.055555555555555546,0,0,0.055555555555555546,32.222222222222214,0)" xlink:href="#cD"/><use transform="matrix(0.055555555555555546,0,0,0.055555555555555546,36.6111111111111,0)" xlink:href="#cB"/><use transform="matrix(0.055555555555555546,0,0,0.055555555555555546,47.72222222222221,0)" xlink:href="#cA"/><use transform="matrix(0.055555555555555546,0,0,0.055555555555555546,54.333333333333314,0)" xlink:href="#cw"/><use transform="matrix(0.055555555555555546,0,0,0.055555555555555546,65.44444444444443,0)" xlink:href="#cK"/><use transform="matrix(0.055555555555555546,0,0,0.055555555555555546,70.99999999999999,0)" xlink:href="#cB"/><use transform="matrix(0.055555555555555546,0,0,0.055555555555555546,82.1111111111111,0)" xlink:href="#cA"/><use transform="matrix(0.055555555555555546,0,0,0.055555555555555546,88.72222222222221,0)" xlink:href="#cE"/></g><g id="ao"><use transform="matrix(0.055555555555555546,0,0,0.055555555555555546,0,0)" xlink:href="#cw"/><use transform="matrix(0.055555555555555546,0,0,0.055555555555555546,11.111111111111109,0)" xlink:href="#cC"/><use transform="matrix(0.055555555555555546,0,0,0.055555555555555546,22.222222222222218,0)" xlink:href="#cw"/><use transform="matrix(0.055555555555555546,0,0,0.055555555555555546,33.33333333333333,0)" xlink:href="#cD"/><use transform="matrix(0.055555555555555546,0,0,0.055555555555555546,37.722222222222214,0)" xlink:href="#cE"/><use transform="matrix(0.055555555555555546,0,0,0.055555555555555546,47.722222222222214,0)" xlink:href="#cx"/><use transform="matrix(0.055555555555555546,0,0,0.055555555555555546,57.722222222222214,0)" xlink:href="#cG"/><use transform="matrix(0.055555555555555546,0,0,0.055555555555555546,62.1111111111111,0)" xlink:href="#cx"/></g></defs></g></svg>